<svg id="ercz4gzdpid1" xmlns="http://www.w3.org/2000/svg" xmlns:xlink="http://www.w3.org/1999/xlink" viewBox="-800 -50 3000 1000" shape-rendering="geometricPrecision" text-rendering="geometricPrecision"><path id="ercz4gzdpid2" d="M-595.100603,-54.898306L1042.261680,-54.898306L1042.261680,208.292719C1032.928715,156.783833,982.279642,106.523535,894.953653,64.351100C796.275286,16.271171,652.787772,-20.720558,489.924803,-39.598452C359.590765,-54.898306,217.795192,-58.513619,82.167016,-50.351212C-68.251999,-41.443380,-210.320466,-17.627043,-323.407622,17.370673C-444.408694,54.492851,-531.680104,104.100903,-570.158118,158.088327C-607.981186,210.715351,-600.121847,267.218586,-546.852994,318.280216C-490.691468,372.696260,-383.662554,420.571198,-245.414598,453.686715C-119.228545,484.100066,31.517943,501.505746,185.702891,504.170641L-595.100603,504.170641L-595.100603,-54.898306Z" transform="matrix(1 0 0 1 2.06268150000011 17.34124122000000)" fill="rgba(151,45,45,0)" stroke="none" stroke-width="1"/><path id="ercz4gzdpid3" d="M198.711156,8.754372C228.577353,18.865473,254.890433,38.678441,272.986305,64.430307C289.000352,87.018088,298.288499,113.937772,300,141.526206L300,159.203166C298.338543,186.512122,289.220545,213.192254,273.506762,235.650277C256.021425,260.803263,230.759267,280.426585,201.913966,290.936940C187.651455,296.217071,172.658305,299.091698,157.495004,300L142.922222,300C114.647421,298.572668,87.003174,289.250093,63.862877,272.960540C38.510639,255.223692,18.883424,229.581620,8.584390,200.436097C-1.184178,173.087215,-2.625442,142.823781,4.310641,114.636466C11.366831,85.720513,27.370868,59.150176,49.560331,39.267340C70.298521,20.522376,96.351373,7.766219,123.935568,2.995137C148.807384,-1.376692,174.810192,0.559689,198.711156,8.754372Z" transform="matrix(1 0 0 1 0.19999999500011 -6.03307363999991)" fill="rgba(35,133,154,0)" stroke="rgb(214,173,173)" stroke-width="1" stroke-dashoffset="941.980000" stroke-dasharray="941,98"/><path id="ercz4gzdpid4" d="M176.850000,83.960000C169.940000,86.580000,161.570000,86.630000,154.670000,83.960000C161.170000,80.940000,170.340000,81,176.850000,83.960000Z" fill="rgb(29,163,211)" stroke="none" stroke-width="1"/><path id="ercz4gzdpid5" d="M164.650000,86.530000L166.770000,86.520000C166.760000,88.850000,166.760000,91.180000,166.750000,93.510000C174.660000,94.120000,180.820000,97.900000,187.580000,101.580000C188.720000,102.440000,189.650000,103.630000,190.620000,104.670000C204.650000,104.660000,218.690000,104.800000,232.720000,104.600000C235.250000,102.330000,237.530000,102.070000,240.800000,101.810000C240.840000,99.660000,240.910000,97.510000,241.070000,95.360000C243.820000,97.100000,243.110000,99.060000,243.470000,101.880000C245.350000,102.100000,247.400000,102.120000,249.190000,102.770000C251.450000,104.230000,251.500000,107.790000,249.170000,109.230000C247.350000,109.830000,245.290000,109.810000,243.400000,110.040000C243.280000,112.030000,243.110000,114.010000,242.860000,115.980000C240.890000,114.250000,240.900000,112.430000,240.520000,110.040000C237.280000,109.840000,235.230000,109.570000,232.680000,107.390000C218.650000,107.190000,204.610000,107.340000,190.570000,107.310000C189.460000,108.580000,188.360000,110.070000,186.970000,111.050000C185.520000,111.730000,183.620000,111.650000,182.050000,111.710000C172.870000,111.680000,163.680000,111.680000,154.500000,111.680000C154.500000,112.870000,154.500000,114.050000,154.500000,115.240000C151.720000,115.230000,148.930000,115.240000,146.150000,115.240000C146.030000,114.050000,145.920000,112.860000,145.810000,111.670000C136.860000,111.700000,127.920000,111.670000,118.970000,111.720000C117.300000,111.660000,115.380000,111.770000,113.790000,111.170000C112.240000,110.370000,111.110000,108.640000,110.010000,107.320000C95.950000,107.310000,81.890000,107.240000,67.830000,107.360000C65.210000,109.600000,63.040000,109.850000,59.670000,110.080000C59.620000,111.690000,59.560000,113.310000,59.500000,114.920000C58.750000,114.890000,58,114.850000,57.260000,114.810000C57.200000,113.210000,57.160000,111.610000,57.120000,110.010000C55.280000,109.820000,53.310000,109.840000,51.530000,109.300000C48.860000,108.080000,48.900000,103.910000,51.530000,102.670000C53.250000,102.120000,55.170000,102.070000,56.960000,101.850000C57.150000,99.520000,57.420000,97.210000,57.980000,94.930000C59.400000,97.110000,59.660000,99.270000,59.870000,101.800000C63.180000,102.080000,65.270000,102.460000,67.830000,104.630000C81.860000,104.740000,95.900000,104.710000,109.940000,104.650000C111.210000,103.280000,112.200000,101.880000,113.890000,101.020000C118.300000,98.850000,122.210000,96.210000,126.980000,94.810000C130.290000,93.710000,133.560000,93.760000,137,93.750000C146.220000,93.810000,155.440000,93.770000,164.660000,93.780000C164.650000,91.370000,164.650000,88.950000,164.650000,86.530000Z" fill="rgb(29,163,211)" stroke="none" stroke-width="1"/><path id="ercz4gzdpid6" d="M53.700000,93.740000C54.480000,95.110000,55.250000,96.480000,56.030000,97.850000C55.060000,98.520000,54.080000,99.190000,53.110000,99.870000C43.890000,97.820000,34.800000,98.510000,25.540000,97.370000C34.830000,95.810000,44.320000,94.750000,53.700000,93.740000Z" fill="rgb(29,163,211)" stroke="none" stroke-width="1"/><path id="ercz4gzdpid7" d="M63.520000,93.730000C72.900000,94.780000,82.390000,95.820000,91.710000,97.350000C82.420000,98.530000,73.270000,97.810000,64.030000,99.870000C63.070000,99.190000,62.110000,98.500000,61.150000,97.820000C61.940000,96.450000,62.730000,95.090000,63.520000,93.730000Z" fill="rgb(29,163,211)" stroke="none" stroke-width="1"/><path id="ercz4gzdpid8" d="M237.050000,93.760000C237.800000,95.120000,238.560000,96.490000,239.310000,97.860000C238.350000,98.530000,237.380000,99.200000,236.410000,99.880000C227.170000,97.810000,218.130000,98.510000,208.840000,97.380000C218.140000,95.790000,227.660000,94.730000,237.050000,93.760000Z" fill="rgb(29,163,211)" stroke="none" stroke-width="1"/><path id="ercz4gzdpid9" d="M246.830000,93.850000C252.210000,94.050000,257.630000,95.010000,262.980000,95.680000C267.030000,96.250000,271.020000,96.430000,274.920000,97.370000C265.640000,98.510000,256.540000,97.820000,247.310000,99.870000C246.330000,99.170000,245.360000,98.470000,244.380000,97.770000C245.180000,96.440000,245.970000,95.130000,246.830000,93.850000Z" fill="rgb(29,163,211)" stroke="none" stroke-width="1"/><path id="ercz4gzdpid10" d="M53.010000,112.220000C54.070000,112.780000,55.110000,113.380000,56.160000,113.970000C55.300000,115.400000,54.440000,116.840000,53.570000,118.260000C44.240000,117.080000,34.790000,116.210000,25.540000,114.520000C34.720000,113.600000,43.890000,113.910000,53.010000,112.220000Z" fill="rgb(29,163,211)" stroke="none" stroke-width="1"/><path id="ercz4gzdpid11" d="M64.150000,112.230000C73.300000,113.900000,82.500000,113.610000,91.710000,114.520000C82.420000,116.190000,72.920000,117.110000,63.540000,118.250000C62.710000,116.830000,61.880000,115.410000,61.050000,113.990000C62.070000,113.390000,63.100000,112.780000,64.150000,112.230000Z" fill="rgb(29,163,211)" stroke="none" stroke-width="1"/><path id="ercz4gzdpid12" d="M236.260000,112.828649C237.330000,113.368649,238.370000,113.958649,239.410000,114.528649C238.620000,115.968649,237.820000,117.398649,237.030000,118.838649C227.640000,117.778649,218.140000,116.778649,208.840000,115.148649C217.990000,114.178649,227.150000,114.538649,236.260000,112.828649Z" fill="rgb(29,163,211)" stroke="none" stroke-width="1"/><path id="ercz4gzdpid13" d="M256.668650,113.330000C262.958650,113.990000,269.288650,113.710000,275.548650,114.550000C266.248650,116.180000,256.738650,117.130000,247.358650,118.250000C246.528650,116.730000,245.698650,115.210000,244.868650,113.690000C248.978650,111.270000,252.288650,113.130000,256.668650,113.330000Z" fill="rgb(29,163,211)" stroke="none" stroke-width="1"/><path id="ercz4gzdpid14" d="M135,116.850000C147.360000,116.970000,159.740000,116.720000,172.090000,116.950000C180.500000,117.280000,187.730000,124.500000,187.870000,132.950000C187.940000,142.640000,187.990000,152.350000,187.850000,162.030000C187.570000,164.640000,187.270000,164.530000,184.700000,164.460000C184,161.380000,184.190000,157.980000,184.160000,154.840000C183.180000,154.830000,182.190000,154.830000,181.200000,154.820000C181.200000,151.940000,181.200000,149.070000,181.200000,146.190000C182.200000,146.180000,183.190000,146.180000,184.190000,146.170000C184.090000,141.170000,184.600000,135.980000,183.790000,131.040000C182.610000,125.080000,177.130000,120.730000,171.080000,120.720000C157.370000,120.640000,143.640000,120.690000,129.940000,120.700000C123.330000,120.520000,117.310000,125.450000,116.530000,132.050000C116.130000,136.730000,116.430000,141.470000,116.380000,146.170000C117.350000,146.180000,118.330000,146.190000,119.310000,146.200000C119.310000,149.070000,119.310000,151.940000,119.310000,154.810000C118.340000,154.820000,117.370000,154.830000,116.410000,154.840000C116.380000,157.650000,116.490000,160.520000,116.180000,163.320000C115.110000,163.930000,114,164.480000,112.850000,164.960000C112.280000,154.650000,112.680000,144.280000,112.570000,133.960000C112.440000,127.280000,116.360000,121.180000,122.390000,118.390000C126.310000,116.530000,130.770000,116.880000,135,116.850000Z" fill="rgb(29,163,211)" stroke="none" stroke-width="1"/><path id="ercz4gzdpid15" d="M145.900000,122.140000C148.770000,122.110000,151.630000,122.100000,154.500000,122.090000C154.500000,125.680000,154.500000,129.280000,154.500000,132.870000C151.640000,132.860000,148.770000,132.850000,145.900000,132.820000C145.910000,129.260000,145.910000,125.700000,145.900000,122.140000Z" fill="rgb(29,163,211)" stroke="none" stroke-width="1"/><path id="ercz4gzdpid16" d="M129.980000,134.460000C143.650000,134.440000,157.360000,134.390000,171.030000,134.480000C173.960000,134.480000,176.160000,136.200000,176.510000,139.170000C176.900000,145.760000,176.530000,152.410000,176.690000,159.020000C176.570000,161.790000,177.040000,164.720000,174.700000,166.730000C173.250000,168.100000,170.870000,167.810000,169.030000,167.920000C155.990000,167.840000,142.950000,167.930000,129.920000,167.880000C127.150000,167.990000,124.860000,166.900000,124.160000,164.060000C123.470000,160.130000,123.890000,155.980000,123.800000,152C123.950000,147.450000,123.380000,142.670000,124.200000,138.200000C124.960000,135.460000,127.320000,134.420000,129.980000,134.460000Z" fill="rgb(29,163,211)" stroke="none" stroke-width="1"/><path id="ercz4gzdpid17" d="M146.440000,141.490000C151.630000,139.360000,157.780000,142.030000,159.750000,147.290000C161.980000,152.890000,158.640000,159.280000,152.870000,160.810000C147.260000,162.440000,141.180000,158.480000,140.230000,152.760000C139.370000,148,142,143.330000,146.440000,141.490000Z" fill="rgb(154,35,36)" stroke="none" stroke-width="1"/><path id="ercz4gzdpid18" d="M147.170000,143.709388C151.220000,142.129388,155.890000,143.879388,157.780000,147.809388C159.890000,151.999388,157.980000,157.309388,153.690000,159.179388C149.510000,160.999388,144.540000,159.199388,142.630000,155.049388C140.570000,150.749388,142.730000,145.409388,147.170000,143.709388Z" fill="rgb(29,163,211)" stroke="none" stroke-width="1"/><path id="ercz4gzdpid19" d="M169.060000,148.310000C170.120000,149.670000,170.470000,151.230000,170.910000,152.860000C169.220000,152.500000,167.710000,152.080000,166.280000,151.070000C167.150000,150.070000,168.080000,149.150000,169.060000,148.310000Z" fill="rgb(154,35,36)" stroke="none" stroke-width="1"/><path id="ercz4gzdpid20" d="M300,158.940000L300,300L157.620000,300C172.770000,299.090000,187.750000,296.210000,202,290.920000C230.820000,280.390000,256.060000,260.730000,273.530000,235.530000C289.230000,213.030000,298.340000,186.300000,300,158.940000Z" transform="matrix(1 0 0 1 -667.64147692999995 -151.68999999500005)" fill="rgba(216,55,55,0)" stroke="none" stroke-width="1"/><path id="ercz4gzdpid21" d="M241.480000,188.725143C244.890000,192.805143,245.540000,199.075143,248.860000,203.365143C251.290000,206.635143,254.940000,208.735143,257.350000,211.915143C259.780000,214.915143,258.110000,219.625143,260.720000,222.455143C263,225.255143,265.280000,227.555143,265.770000,231.335143C266.850000,235.725143,263.020000,238.745143,260.690000,241.915143C234.400000,274.035143,193.860000,294.185143,152.180000,293.965143C157.030000,293.155143,161.830000,292.475143,166.480000,290.795143C166.600000,289.915143,166.720000,289.035143,166.840000,288.155143C170.310000,287.085143,173.840000,286.245143,177.340000,285.305143C173.150000,283.265143,168.530000,282.705143,164.460000,280.395143C167.490000,278.115143,170.230000,276.905143,174,276.425143C179.300000,275.725143,184.370000,274.755143,189.010000,271.965143C183.680000,269.215143,178.440000,269.895143,172.710000,269.565143C172.240000,268.935143,171.770000,268.315143,171.300000,267.685143C165.220000,267.245143,159.730000,267.945143,154,265.365143C155.600000,264.475143,157.190000,263.585143,158.780000,262.675143C152.490000,261.835143,146.300000,262.535143,140,262.275143C133.320000,262.055143,126.660000,262.555143,119.980000,262.345143C112.910000,262.155143,105.110000,263.345143,98.200000,261.885143C97.930000,259.915143,100.690000,259.235143,101.900000,258.145143C97.350000,256.675143,92.730000,256.495143,87.980000,256.385143C75.570000,255.395143,63.670000,255.715143,51.260000,253.705143C50.020000,253.265143,49,252.065143,48.050000,251.195143C43.300000,246.325143,38.930000,240.985143,34.810000,235.575143C39.240000,235.545143,43.680000,235.555143,48.120000,235.545143C51.640000,233.135143,55.360000,230.085143,59.470000,228.805143C64.830000,227.885143,69.860000,229.315143,74.790000,226.025143C79.930000,222.355143,83.190000,216.435143,87.980000,212.215143C90.180000,215.505143,91.850000,219.815143,94.880000,222.395143C97.920000,225.165143,103.170000,221.465143,106.830000,223.365143C111.610000,225.515143,114.160000,229.315143,120,228.305143C126.210000,227.345143,130.640000,230.145143,136.110000,232.315143C139.500000,233.765143,143.040000,231.805143,146.020000,230.245143C155.500000,224.775143,163.910000,217.275143,173.130000,211.365143C175.410000,209.965143,178.310000,208.385143,181.070000,208.615143C185.430000,209.705143,188.200000,213.495143,193,213.165143C197.730000,213.405143,200.640000,208.135143,204.920000,206.555143C208.860000,205.915143,214.400000,208.485143,217.730000,205.985143C223.630000,202.015143,226,193.135143,231.590000,188.815143C234.450000,186.735143,238.840000,185.745143,241.480000,188.725143Z" fill="rgb(241,243,244)" stroke="none" stroke-width="1"/><line id="ercz4gzdpid22" x1="-138.742229" y1="339.706054" x2="8.958347" y2="240.488544" fill="none" stroke="rgb(84,131,204)" stroke-width="7" stroke-linecap="round" stroke-miterlimit="10"/><line id="ercz4gzdpid23" x1="-565.540262" y1="164.960000" x2="-31.374164" y2="164.171245" fill="none" stroke="rgb(84,131,204)" stroke-width="7" stroke-linecap="round" stroke-miterlimit="10" stroke-dasharray="20,30"/><line id="ercz4gzdpid24" x1="336.097120" y1="161.224573" x2="970.965485" y2="161.224573" fill="none" stroke="rgb(84,131,204)" stroke-width="7" stroke-linecap="round" stroke-miterlimit="10" stroke-dashoffset="409.940000" stroke-dasharray="20,30"/><line id="ercz4gzdpid25" x1="150.257483" y1="470.378693" x2="150" y2="314.561559" transform="matrix(1 0 0 1 1.24514299999998 -2.49028499999997)" fill="none" stroke="rgb(84,131,204)" stroke-width="7" stroke-linecap="round" stroke-miterlimit="10"/><line id="ercz4gzdpid26" x1="399.004003" y1="339.706054" x2="287.579479" y2="240.488544" transform="matrix(1 0 0 1 -0.64976200000007 2.62448450000005)" fill="none" stroke="rgb(84,131,204)" stroke-width="7" stroke-linecap="round" stroke-miterlimit="10"/><g id="ercz4gzdpid27"><path id="ercz4gzdpid28" d="M180.024950,234.440000C193.394950,239.870000,202.364950,253.570000,201.894950,268C201.824950,275.900000,198.804950,283.040000,194.084950,289.260000C197.594950,293.510000,201.274950,297.620000,204.794950,301.870000C201.654950,301.770000,197.984950,302.360000,194.964950,301.530000C192.754950,299.390000,190.954950,296.850000,188.864950,294.580000C183.144950,298.860000,176.644950,301.750000,169.464950,302.320000C155.194950,303.780000,140.494950,296.520000,133.744950,283.720000C127.264950,272.080000,128.284950,257.350000,136.074950,246.590000C145.684950,232.890000,164.714950,227.740000,180.024950,234.440000Z" transform="matrix(1 0 0 1 -581.06735199500008 -170.20738279000005)" opacity="0" fill="rgb(190,229,129)" fill-opacity="0" stroke="rgb(190,229,129)" stroke-width="10"/><path id="ercz4gzdpid29" d="M212.010000,232C214.490000,232,216.970000,232,219.450000,232.010000C219.550000,247,219.330000,262.010000,219.550000,277C219.920000,287.020000,228.550000,296.680000,239.030000,295.800000C249.050000,295.110000,255.800000,285.560000,255.940000,276.020000C256.090000,261.360000,255.940000,246.670000,256.010000,232C258.490000,232,260.970000,232,263.450000,232.010000C263.470000,246.340000,263.480000,260.670000,263.450000,275C263.510000,284.750000,258.800000,294.270000,250.410000,299.410000C242.880000,304.080000,232.980000,304.190000,225.370000,299.630000C214.224579,294.700000,211.940000,284.750000,212,275C211.990000,260.680000,212,246.330000,212.010000,232Z" transform="matrix(1 0 0 1 -561.92614691000040 -167.61117801499998)" opacity="0" fill="rgb(190,229,129)" stroke="none" stroke-width="1"/><path id="ercz4gzdpid30" d="M277.010000,232C279.490000,232,281.970000,232,284.450000,232.010000C284.480000,255.340000,284.480000,278.660000,284.450000,301.990000C281.970000,302,279.490000,302,277.010000,302C276.990000,278.670000,276.990000,255.330000,277.010000,232Z" transform="matrix(1 0 0 1 -540.54814300000044 -167.12999999500016)" opacity="0" fill="rgb(190,229,129)" stroke="none" stroke-width="1"/><path id="ercz4gzdpid31" d="M177.270000,241.730000C186.420000,246.240000,192.640000,255.790000,192.930000,266C193.310000,272.380000,191.230000,278.330000,187.770000,283.620000C185.620000,281.300000,183.770000,278.680000,181.480000,276.500000C178.520000,275.620000,174.840000,276.190000,171.740000,276.060000C175.320000,280.370000,179.010000,284.580000,182.590000,288.900000C172.620000,297.010000,158.320000,297.480000,147.730000,290.270000C140.150000,285.180000,135.440000,276.110000,135.480000,267C135.460000,258.350000,139.610000,249.780000,146.560000,244.580000C155.280000,237.950000,167.480000,236.760000,177.270000,241.730000Z" transform="matrix(1 0 0 1 -578.15445908499964 -170.15213944500016)" fill="rgba(189,230,128,0.44)" fill-opacity="0" stroke="none" stroke-width="1"/></g><g id="ercz4gzdpid32"><path id="ercz4gzdpid33" d="M130.260000,27.720000C132.350000,36.120000,134.490000,44.500000,136.570000,52.900000L133.690000,53.740000C131.720000,46.410000,130.260000,38.900000,127.900000,31.690000C127.620000,37.930000,126.390000,44.050000,126.140000,50.290000C124.980000,50.670000,123.810000,51.040000,122.650000,51.410000C118.910000,46.270000,115.290000,41,111.770000,35.700000C113.330000,43.140000,115.430000,50.460000,117.190000,57.850000C116.210000,58.070000,115.220000,58.300000,114.240000,58.520000C112.180000,50.110000,110.080000,41.700000,107.900000,33.320000C109.540000,32.930000,111.180000,32.540000,112.810000,32.130000C116.320000,37.160000,119.810000,42.190000,123.260000,47.250000C124.070000,41.190000,124.440000,35.040000,125.520000,29.020000C127.090000,28.520000,128.670000,28.130000,130.260000,27.720000Z" transform="matrix(1 0 0 1 -38.85623000000000 -63.83240010000000)" opacity="0" fill="rgb(190,229,129)" stroke="none" stroke-width="1"/><path id="ercz4gzdpid34" d="M181.650000,29.760000C183.220000,30.240000,184.770000,30.770000,186.330000,31.290000C186.460000,37.470000,186.440000,43.670000,186.350000,49.850000C190.430000,45.410000,194.220000,40.680000,198.350000,36.290000C200,36.290000,201.690000,37.210000,203.240000,37.710000C200.170000,45.870000,197.120000,54.030000,194.040000,62.180000C193.120000,61.790000,192.200000,61.390000,191.280000,60.990000C193.850000,53.920000,196.800000,46.960000,199.060000,39.780000C195.170000,44.640000,190.770000,49.050000,186.960000,53.960000C185.760000,53.540000,184.550000,53.110000,183.350000,52.670000C183.510000,46.440000,183.310000,40.210000,183.500000,33.980000C180.460000,40.860000,178.040000,48.050000,175.410000,55.090000C174.460000,54.730000,173.510000,54.360000,172.570000,53.990000C175.580000,45.910000,178.630000,37.840000,181.650000,29.760000Z" transform="matrix(1 0 0 1 0.03414436000003 -67.49240010000000)" opacity="0" fill="rgb(190,229,129)" stroke="none" stroke-width="1"/><path id="ercz4gzdpid35" d="M63.270000,63.300000C71.010000,60.070000,80.280000,67.490000,81.180000,75.260000C81.500000,82.030000,75.820000,88.120000,69.030000,88.210000C62.630000,87.680000,56.620000,82.490000,55.500000,76.110000C54.680000,70.670000,58.300000,65.310000,63.270000,63.300000Z" transform="matrix(1 0 0 1 -52.60610979000002 -47.64735923999997)" opacity="0" fill="rgb(190,229,129)" stroke="none" stroke-width="1"/><path id="ercz4gzdpid36" d="M64.190000,66.200000C70.210000,63.620000,77.490000,69.620000,78.150000,75.630000C78.390000,80.600000,73.970000,85.060000,69.050000,85.160000C64.230000,84.710000,59.690000,80.860000,58.620000,76.120000C57.710000,72.020000,60.440000,67.770000,64.190000,66.200000Z" transform="matrix(1 0 0 1 -52.61934267500006 -47.65256989999995)" fill="rgb(246,248,243)" fill-opacity="0" stroke="none" stroke-width="1"/><path id="ercz4gzdpid37" d="M239.830000,65.990000C243.250000,70.100000,246.550000,74.300000,249.950000,78.420000C249.140000,79.050000,248.340000,79.670000,247.530000,80.300000C244.870000,76.880000,242.100000,73.560000,239.400000,70.170000C237.330000,71.860000,235.250000,73.550000,233.180000,75.240000C235.720000,78.350000,238.260000,81.460000,240.750000,84.600000C239.960000,85.210000,239.160000,85.810000,238.370000,86.420000C235.880000,83.300000,233.350000,80.210000,230.850000,77.110000C228.520000,79.010000,226.180000,80.900000,223.840000,82.780000C226.590000,86.140000,229.320000,89.530000,232.090000,92.890000C231.290000,93.520000,230.500000,94.150000,229.710000,94.780000C226.360000,90.620000,222.990000,86.490000,219.630000,82.330000C226.390000,76.920000,233.070000,71.400000,239.830000,65.990000Z" transform="matrix(1 0 0 1 40.01999999999990 -67.06000000999995)" opacity="0" fill="rgb(190,229,129)" stroke="none" stroke-width="1"/><path id="ercz4gzdpid38" d="M32.080000,115.260000C32.970000,115.460000,33.850000,115.700000,34.720000,115.980000C33.510000,119.090000,31.030000,123.560000,32.210000,126.900000C32.530000,128.910000,35.220000,129.750000,36.920000,129.260000C40.230000,126.640000,40.330000,121.680000,43.540000,118.650000C46.880000,115.710000,53.110000,117.140000,54.470000,121.510000C55.780000,126.890000,53.810000,131.360000,51.800000,136.210000C50.500000,135.960000,49.200000,135.700000,47.900000,135.440000C50.530000,131.290000,52.590000,127.560000,51.700000,122.430000C51.170000,121.740000,50.650000,121.040000,50.130000,120.340000C48.650000,120.240000,47.240000,120.300000,45.780000,120.470000C43.760000,123.150000,42.730000,126.240000,41.090000,129.120000C39.660000,131.580000,36.810000,133.170000,33.970000,132.130000C31.100000,131.780000,29.180000,128.420000,28.800000,125.820000C28.870000,122.460000,30.140000,118.030000,32.080000,115.260000Z" transform="matrix(1 0 0 1 -57.40125000000000 -45.35000000500000)" opacity="0" fill="rgb(190,229,129)" stroke="none" stroke-width="1"/><path id="ercz4gzdpid39" d="M267.230000,116.700000C269.930000,119.850000,270.510000,124.970000,270.190000,128.970000C269.210000,129.140000,268.220000,129.320000,267.240000,129.490000C267.450000,125.990000,267.250000,121.050000,264.690000,118.360000C263,116.500000,259.490000,117.560000,259.020000,119.990000C258.260000,123.410000,259.510000,127.900000,258.150000,131.310000C256.180000,135.700000,249.390000,136.170000,246.540000,132.480000C243.660000,128.650000,243.390000,123.250000,243.280000,118.640000C244.600000,118.390000,245.920000,118.140000,247.230000,117.880000C246.030000,122.840000,246.540000,127.340000,249.460000,131.570000C251.080000,131.730000,252.690000,131.800000,254.320000,131.770000C257.470000,126.940000,254.240000,122.030000,257.050000,116.970000C259.470000,113.720000,264.560000,113.630000,267.230000,116.700000Z" transform="matrix(1 0 0 1 58.22262648999998 -36.50013104000003)" opacity="0" fill="rgb(190,229,129)" stroke="none" stroke-width="1"/></g><g id="ercz4gzdpid40"/><g id="ercz4gzdpid41" transform="matrix(1 0 0 1 435.69094699999999 -70.53000000000002)"/><g id="ercz4gzdpid42"><path id="ercz4gzdpid43" d="M259.020000,136.990000C267.290000,136.530000,271.970000,142.050000,275.460000,148.760000C273.810000,149.400000,272.160000,150.040000,270.510000,150.670000C267.530000,147.340000,264.140000,142.450000,259.070000,142.990000C253.660000,143.260000,249.630000,150.060000,253.500000,154.450000C258.960000,159.760000,269.550000,160.790000,274.760000,167.250000C279.530000,172.690000,278.890000,180.970000,274.310000,186.290000C268.170000,193.510000,257.010000,195.270000,249.090000,189.940000C243.940000,186.500000,242.410000,180.910000,240.570000,175.360000C242.440000,175.100000,244.320000,174.850000,246.200000,174.610000C248.480000,179.450000,250.110000,184.410000,255.630000,186.370000C262.800000,188.910000,271.100000,184.800000,271.970000,176.920000C272.580000,170.990000,267.600000,168.210000,263.040000,165.970000C257.640000,163.210000,278.125340,178.747902,246.920000,155.060000C243.430000,146.620000,249.990000,137.170000,259.020000,136.990000Z" transform="matrix(1 0 0 1 459.43000000000018 -56.57818251000003)" opacity="0" fill="rgb(190,229,129)" stroke="none" stroke-width="1"/><path id="ercz4gzdpid44" d="M70.240000,138.380000C76.220000,142.470000,81.550000,148.210000,87,153C96.320000,161.310000,105.170000,170.210000,114.860000,178.090000C115.160000,164.750000,114.870000,151.400000,115.070000,138.060000C117.020000,138.060000,118.970000,138.060000,120.920000,138.060000C121.030000,156.050000,121.120000,174.050000,120.870000,192.030000C105.450000,179.260000,91.490000,164.780000,76.120000,151.960000C75.850000,165.280000,76.120000,178.610000,75.930000,191.940000C73.980000,191.940000,72.030000,191.940000,70.080000,191.940000C70.130000,174.110000,69.600000,156.180000,70.240000,138.380000Z" transform="matrix(1 0 0 1 435.19571027000001 -55.26229220499988)" opacity="0" fill="rgb(190,229,129)" stroke="none" stroke-width="1"/><path id="ercz4gzdpid45" d="M152.360000,138.360000C165.710000,136.040000,178.940000,143.900000,183.490000,156.580000C187.620000,167.660000,183.380000,180.070000,174.180000,187.180000C166.350000,193.390000,155.300000,194.660000,146.110000,190.870000C135.970000,186.650000,128.630000,176.080000,128.940000,164.990000C129.130000,151.970000,139.510000,140.280000,152.360000,138.360000Z" transform="matrix(1 0 0 1 445.78971725000014 -56.23770391000008)" opacity="0" fill="rgb(190,229,129)" fill-opacity="0" stroke="none" stroke-width="1"/><path id="ercz4gzdpid46" d="M193.820000,139.140000C195.360000,138.230000,197.090000,137.600000,198.750000,136.900000C199.420000,148.280000,198.610000,159.680000,199.010000,171.050000C199.150000,177.010000,201.950000,182.830000,207.420000,185.580000C213.640000,188.750000,221.860000,186.430000,225.360000,180.370000C227.970000,175.910000,228.040000,171.030000,228.110000,166.010000C228.080000,156.690000,227.890000,147.380000,228.080000,138.060000C230.020000,138.060000,231.970000,138.060000,233.920000,138.060000C234.030000,146.710000,233.990000,155.350000,234.120000,164C234.110000,169.560000,234.250000,175.830000,231.960000,181C228.700000,188.170000,220.950000,193.320000,213,193.030000C203.760000,192.840000,195.200000,185.570000,193.620000,176.430000C192.330000,168.800000,193.170000,160.740000,192.880000,153C192.980000,148.550000,192.350000,143.380000,193.820000,139.140000Z" transform="matrix(1 0 0 1 451.66675000000004 -55.18255643999987)" opacity="0" fill="rgb(190,229,129)" stroke="none" stroke-width="1"/><path id="ercz4gzdpid47" d="M152.380000,144.430000C162.140000,142.220000,173.290000,147.570000,177.130000,156.940000C179.860000,162.880000,179.540000,169.670000,176.480000,175.420000C173.730000,181.040000,168.300000,184.750000,162.390000,186.380000C155.150000,188.260000,147.340000,186.110000,141.760000,181.220000C135,175.010000,133.030000,164.470000,137.190000,156.250000C139.980000,150.040000,145.880000,145.980000,152.380000,144.430000Z" transform="matrix(1 0 0 1 445.78761900000046 -56.25188997999958)" opacity="0" fill="rgba(255,255,255,0.02)" fill-opacity="0" stroke="rgba(189,229,128,0.99)" stroke-width="7"/></g><script><![CDATA[!function(t,n){"object"==typeof exports&&"undefined"!=typeof module?module.exports=n():"function"==typeof define&&define.amd?define(n):(t=t||self).__SVGATOR_PLAYER__=n()}(this,(function(){"use strict";function t(n){return(t="function"==typeof Symbol&&"symbol"==typeof Symbol.iterator?function(t){return typeof t}:function(t){return t&&"function"==typeof Symbol&&t.constructor===Symbol&&t!==Symbol.prototype?"symbol":typeof t})(n)}function n(t,n){if(!(t instanceof n))throw new TypeError("Cannot call a class as a function")}function r(t,n){for(var r=0;r<n.length;r++){var e=n[r];e.enumerable=e.enumerable||!1,e.configurable=!0,"value"in e&&(e.writable=!0),Object.defineProperty(t,e.key,e)}}function e(t,n,e){return n&&r(t.prototype,n),e&&r(t,e),t}var i=1e-5,u=Math.abs;function o(t){return t}function a(t,n,r){var e=1-r;return 3*r*e*(t*e+n*r)+r*r*r}function l(){var t=arguments.length>0&&void 0!==arguments[0]?arguments[0]:0,n=arguments.length>1&&void 0!==arguments[1]?arguments[1]:0,r=arguments.length>2&&void 0!==arguments[2]?arguments[2]:1,e=arguments.length>3&&void 0!==arguments[3]?arguments[3]:1;return t<0||t>1||r<0||r>1?null:u(t-n)<=i&&u(r-e)<=i?o:function(o){if(o<=0)return t>0?o*n/t:0===n&&r>0?o*e/r:0;if(o>=1)return r<1?1+(o-1)*(e-1)/(r-1):1===r&&t<1?1+(o-1)*(n-1)/(t-1):1;for(var l,f=0,s=1;f<s;){var c=a(t,r,l=(f+s)/2);if(u(o-c)<i)break;c<o?f=l:s=l}return a(n,e,l)}}function f(){return 1}function s(t){return 1===t?1:0}function c(){var t=arguments.length>0&&void 0!==arguments[0]?arguments[0]:1,n=arguments.length>1&&void 0!==arguments[1]?arguments[1]:0;if(1===t){if(0===n)return s;if(1===n)return f}var r=1/t;return function(t){return t>=1?1:(t+=n*r)-t%r}}function v(t){var n=arguments.length>1&&void 0!==arguments[1]?arguments[1]:2;if(Number.isInteger(t))return t;var r=Math.pow(10,n);return Math.round(t*r)/r}var h=Math.PI/180;function y(t,n,r){return t>=.5?r:n}function d(t,n,r){return 0===t||n===r?n:t*(r-n)+n}function g(t,n,r){var e=d(t,n,r);return e<=0?0:e}function m(t,n,r){return 0===t?n:1===t?r:{x:d(t,n.x,r.x),y:d(t,n.y,r.y)}}function p(t,n,r){return 0===t?n:1===t?r:{x:g(t,n.x,r.x),y:g(t,n.y,r.y)}}function b(t,n,r){var e=function(t,n,r){return Math.round(d(t,n,r))}(t,n,r);return e<=0?0:e>=255?255:e}function w(t,n,r){return 0===t?n:1===t?r:{r:b(t,n.r,r.r),g:b(t,n.g,r.g),b:b(t,n.b,r.b),a:d(t,null==n.a?1:n.a,null==r.a?1:r.a)}}function A(t,n,r){if(0===t)return n;if(1===t)return r;var e=n.length;if(e!==r.length)return y(t,n,r);for(var i=[],u=0;u<e;u++)i.push(w(t,n[u],r[u]));return i}function x(t,n,r){var e=n.length;if(e!==r.length)return y(t,n,r);for(var i=new Array(e),u=0;u<e;u++)i[u]=d(t,n[u],r[u]);return i}function k(t,n){for(var r=[],e=0;e<t;e++)r.push(n);return r}function S(t,n){if(--n<=0)return t;var r=(t=Object.assign([],t)).length;do{for(var e=0;e<r;e++)t.push(t[e])}while(--n>0);return t}var _=6,M=/\.0+$/g;function I(t){return Number.isInteger(t)?t+"":t.toFixed(_).replace(M,"")}function E(t){var n=arguments.length>1&&void 0!==arguments[1]?arguments[1]:" ";return t&&t.length?t.map(I).join(n):""}function F(t){return I(t.x)+","+I(t.y)}function B(t){return t?null==t.a||t.a>=1?"rgb("+t.r+","+t.g+","+t.b+")":"rgba("+t.r+","+t.g+","+t.b+","+t.a+")":"transparent"}var j={f:null,i:p,u:function(t,n){return function(r){var e=n(r);t.setAttribute("rx",I(e.x)),t.setAttribute("ry",I(e.y))}}},q={f:null,i:function(t,n,r){return 0===t?n:1===t?r:{width:g(t,n.width,r.width),height:g(t,n.height,r.height)}},u:function(t,n){return function(r){var e=n(r);t.setAttribute("width",I(e.width)),t.setAttribute("height",I(e.height))}}},P=Math.sin,O=Math.cos,z=Math.acos,L=Math.asin,C=Math.tan,R=Math.atan2,T=Math.PI/180,V=180/Math.PI,D=Math.sqrt,N=function(){function t(){var r=arguments.length>0&&void 0!==arguments[0]?arguments[0]:1,e=arguments.length>1&&void 0!==arguments[1]?arguments[1]:0,i=arguments.length>2&&void 0!==arguments[2]?arguments[2]:0,u=arguments.length>3&&void 0!==arguments[3]?arguments[3]:1,o=arguments.length>4&&void 0!==arguments[4]?arguments[4]:0,a=arguments.length>5&&void 0!==arguments[5]?arguments[5]:0;n(this,t),this.m=[r,e,i,u,o,a],this.i=null,this.w=null,this.s=null}return e(t,[{key:"point",value:function(t,n){var r=this.m;return{x:r[0]*t+r[2]*n+r[4],y:r[1]*t+r[3]*n+r[5]}}},{key:"translateSelf",value:function(){var t=arguments.length>0&&void 0!==arguments[0]?arguments[0]:0,n=arguments.length>1&&void 0!==arguments[1]?arguments[1]:0;if(!t&&!n)return this;var r=this.m;return r[4]+=r[0]*t+r[2]*n,r[5]+=r[1]*t+r[3]*n,this.w=this.s=this.i=null,this}},{key:"rotateSelf",value:function(){var t=arguments.length>0&&void 0!==arguments[0]?arguments[0]:0;if(t%=360){var n=P(t*=T),r=O(t),e=this.m,i=e[0],u=e[1];e[0]=i*r+e[2]*n,e[1]=u*r+e[3]*n,e[2]=e[2]*r-i*n,e[3]=e[3]*r-u*n,this.w=this.s=this.i=null}return this}},{key:"scaleSelf",value:function(){var t=arguments.length>0&&void 0!==arguments[0]?arguments[0]:1,n=arguments.length>1&&void 0!==arguments[1]?arguments[1]:1;if(1!==t||1!==n){var r=this.m;r[0]*=t,r[1]*=t,r[2]*=n,r[3]*=n,this.w=this.s=this.i=null}return this}},{key:"skewSelf",value:function(t,n){if(n%=360,(t%=360)||n){var r=this.m,e=r[0],i=r[1],u=r[2],o=r[3];t&&(t=C(t*T),r[2]+=e*t,r[3]+=i*t),n&&(n=C(n*T),r[0]+=u*n,r[1]+=o*n),this.w=this.s=this.i=null}return this}},{key:"resetSelf",value:function(){var t=arguments.length>0&&void 0!==arguments[0]?arguments[0]:1,n=arguments.length>1&&void 0!==arguments[1]?arguments[1]:0,r=arguments.length>2&&void 0!==arguments[2]?arguments[2]:0,e=arguments.length>3&&void 0!==arguments[3]?arguments[3]:1,i=arguments.length>4&&void 0!==arguments[4]?arguments[4]:0,u=arguments.length>5&&void 0!==arguments[5]?arguments[5]:0,o=this.m;return o[0]=t,o[1]=n,o[2]=r,o[3]=e,o[4]=i,o[5]=u,this.w=this.s=this.i=null,this}},{key:"recomposeSelf",value:function(){var t=arguments.length>0&&void 0!==arguments[0]?arguments[0]:null,n=arguments.length>1&&void 0!==arguments[1]?arguments[1]:null,r=arguments.length>2&&void 0!==arguments[2]?arguments[2]:null,e=arguments.length>3&&void 0!==arguments[3]?arguments[3]:null,i=arguments.length>4&&void 0!==arguments[4]?arguments[4]:null;return this.isIdentity||this.resetSelf(),t&&(t.x||t.y)&&this.translateSelf(t.x,t.y),n&&this.rotateSelf(n),r&&(r.x&&this.skewSelf(r.x,0),r.y&&this.skewSelf(0,r.y)),!e||1===e.x&&1===e.y||this.scaleSelf(e.x,e.y),i&&(i.x||i.y)&&this.translateSelf(i.x,i.y),this}},{key:"decompose",value:function(){var t=arguments.length>0&&void 0!==arguments[0]?arguments[0]:0,n=arguments.length>1&&void 0!==arguments[1]?arguments[1]:0,r=this.m,e=r[0]*r[0]+r[1]*r[1],i=[[r[0],r[1]],[r[2],r[3]]],u=D(e);if(0===u)return{origin:{x:r[4],y:r[5]},translate:{x:t,y:n},scale:{x:0,y:0},skew:{x:0,y:0},rotate:0};i[0][0]/=u,i[0][1]/=u;var o=r[0]*r[3]-r[1]*r[2]<0;o&&(u=-u);var a=i[0][0]*i[1][0]+i[0][1]*i[1][1];i[1][0]-=i[0][0]*a,i[1][1]-=i[0][1]*a;var l=D(i[1][0]*i[1][0]+i[1][1]*i[1][1]);if(0===l)return{origin:{x:r[4],y:r[5]},translate:{x:t,y:n},scale:{x:u,y:0},skew:{x:0,y:0},rotate:0};i[1][0]/=l,i[1][1]/=l,a/=l;var f=0;return i[1][1]<0?(f=z(i[1][1])*V,i[0][1]<0&&(f=360-f)):f=L(i[0][1])*V,o&&(f=-f),a=R(a,D(i[0][0]*i[0][0]+i[0][1]*i[0][1]))*V,{origin:{x:r[4],y:r[5]},translate:{x:t,y:n},scale:{x:u,y:l},skew:{x:a,y:0},rotate:f}}},{key:"toString",value:function(){return null===this.s&&(this.s="matrix("+this.m.map($).join(" ")+")"),this.s}},{key:"determinant",get:function(){var t=this.m;return t[0]*t[3]-t[1]*t[2]}},{key:"isIdentity",get:function(){if(null===this.i){var t=this.m;this.i=1===t[0]&&0===t[1]&&0===t[2]&&1===t[3]&&0===t[4]&&0===t[5]}return this.i}}]),t}(),G=/\.0+$/;function $(t){return Number.isInteger(t)?t:t.toFixed(14).replace(G,"")}Object.freeze({M:2,L:2,Z:0,H:1,V:1,C:6,Q:4,T:2,S:4,A:7});function H(t,n,r){return t+(n-t)*r}function Q(t,n,r){var e=arguments.length>3&&void 0!==arguments[3]&&arguments[3],i={x:H(t.x,n.x,r),y:H(t.y,n.y,r)};return e&&(i.a=function(t,n){return Math.atan2(n.y-t.y,n.x-t.x)}(t,n)),i}function U(t,n,r,e){var i=1-e;return i*i*t+2*i*e*n+e*e*r}function Y(t,n,r,e){return 2*(1-e)*(n-t)+2*e*(r-n)}function Z(t,n,r,e){var i=arguments.length>4&&void 0!==arguments[4]&&arguments[4],u={x:U(t.x,n.x,r.x,e),y:U(t.y,n.y,r.y,e)};return i&&(u.a=function(t,n,r,e){return Math.atan2(Y(t.y,n.y,r.y,e),Y(t.x,n.x,r.x,e))}(t,n,r,e)),u}function J(t,n,r,e,i){var u=i*i;return i*u*(e-t+3*(n-r))+3*u*(t+r-2*n)+3*i*(n-t)+t}function K(t,n,r,e,i){var u=1-i;return 3*(u*u*(n-t)+2*u*i*(r-n)+i*i*(e-r))}function W(t,n,r,e,i){var u=arguments.length>5&&void 0!==arguments[5]&&arguments[5],o={x:J(t.x,n.x,r.x,e.x,i),y:J(t.y,n.y,r.y,e.y,i)};return u&&(o.a=function(t,n,r,e,i){return Math.atan2(K(t.y,n.y,r.y,e.y,i),K(t.x,n.x,r.x,e.x,i))}(t,n,r,e,i)),o}function X(t,n,r){var e,i=arguments.length>3&&void 0!==arguments[3]&&arguments[3];if(nt(n)){if(null!=(e=r).start&&!nt(e))return Z(n,r.start,r,t,i)}else if(nt(r)){if(n.end)return Z(n,n.end,r,t,i)}else{if(n.end)return r.start?W(n,n.end,r.start,r,t,i):Z(n,n.end,r,t,i);if(r.start)return Z(n,r.start,r,t,i)}return Q(n,r,t,i)}function tt(t,n,r){var e=X(t,n,r,!0);return e.a=function(t){return arguments.length>1&&void 0!==arguments[1]&&arguments[1]?t+Math.PI:t}(e.a)/h,e}function nt(t){return!t.type||"corner"===t.type}var rt=new N;var et={f:function(t){return t?t.join(" "):""},i:function(n,r,e){if(0===n)return r;if(1===n)return e;var i=r.length;if(i!==e.length)return y(n,r,e);for(var u,o=new Array(i),a=0;a<i;a++){if((u=t(r[a]))!==t(e[a]))return y(n,r,e);if("number"===u)o[a]=d(n,r[a],e[a]);else{if(r[a]!==e[a])return y(n,r,e);o[a]=r[a]}}return o}},it={f:null,i:x,u:function(t,n){return function(r){var e=n(r);t.setAttribute("x1",I(e[0])),t.setAttribute("y1",I(e[1])),t.setAttribute("x2",I(e[2])),t.setAttribute("y2",I(e[3]))}}},ut={f:I,i:d},ot={f:I,i:function(t,n,r){var e=d(t,n,r);return e<=0?0:e>=1?1:e}},at={f:E,i:function(t,n,r){var e,i,u,o=n.length,a=r.length;if(o!==a)if(0===o)n=k(o=a,0);else if(0===a)a=o,r=k(o,0);else{var l=(u=(e=o)*(i=a)/function(t,n){for(var r;n;)r=n,n=t%n,t=r;return t||1}(e,i))<0?-u:u;n=S(n,Math.floor(l/o)),r=S(r,Math.floor(l/a)),o=a=l}for(var f=[],s=0;s<o;s++)f.push(v(g(t,n[s],r[s]),6));return f}};function lt(t,n,r,e,i,u,o,a){return n=function(t,n,r){for(var e,i,u,o=t.length-1,a={},l=0;l<=o;l++)(e=t[l]).e&&(e.e=n(e.e)),e.v&&"g"===(i=e.v).t&&i.r&&(u=r.getElementById(i.r))&&(a[i.r]=u.querySelectorAll("stop"));return a}(t,e,a),function(e){var i,u=r(e,t,ft);return u?"c"===u.t?B(u.v):"g"===u.t?(n[u.r]&&function(t,n){for(var r=0,e=t.length;r<e;r++)t[r].setAttribute("stop-color",B(n[r]))}(n[u.r],u.v),(i=u.r)?"url(#"+i+")":"none"):"none":"none"}}function ft(t,n,r){if(0===t)return n;if(1===t)return r;if(n&&r){var e=n.t;if(e===r.t)switch(n.t){case"c":return{t:e,v:w(t,n.v,r.v)};case"g":if(n.r===r.r)return{t:e,v:A(t,n.v,r.v),r:n.r}}}return y(t,n,r)}var st={blur:p,brightness:g,contrast:g,"drop-shadow":function(t,n,r){return 0===t?n:1===t?r:{blur:p(t,n.blur,r.blur),offset:m(t,n.offset,r.offset),color:w(t,n.color,r.color)}},grayscale:g,"hue-rotate":d,invert:g,opacity:g,saturate:g,sepia:g};function ct(t,n,r){if(0===t)return n;if(1===t)return r;var e=n.length;if(e!==r.length)return y(t,n,r);for(var i,u=[],o=0;o<e;o++){if(n[o].type!==r[o].type)return n;if(!(i=st[n[o].type]))return y(t,n,r);u.push({type:n.type,value:i(t,n[o].value,r[o].value)})}return u}var vt={blur:function(t){return t?function(n){t.setAttribute("stdDeviation",F(n))}:null},brightness:function(t,n,r){return(t=yt(r,n))?function(n){n=I(n),t.map((function(t){return t.setAttribute("slope",n)}))}:null},contrast:function(t,n,r){return(t=yt(r,n))?function(n){var r=I((1-n)/2);n=I(n),t.map((function(t){t.setAttribute("slope",n),t.setAttribute("intercept",r)}))}:null},"drop-shadow":function(t,n,r){var e=r.getElementById(n+"-blur");if(!e)return null;var i=r.getElementById(n+"-offset");if(!i)return null;var u=r.getElementById(n+"-flood");return u?function(t){e.setAttribute("stdDeviation",F(t.blur)),i.setAttribute("dx",I(t.offset.x)),i.setAttribute("dy",I(t.offset.y)),u.setAttribute("flood-color",B(t.color))}:null},grayscale:function(t){return t?function(n){t.setAttribute("values",E(function(t){return[.2126+.7874*(t=1-t),.7152-.7152*t,.0722-.0722*t,0,0,.2126-.2126*t,.7152+.2848*t,.0722-.0722*t,0,0,.2126-.2126*t,.7152-.7152*t,.0722+.9278*t,0,0,0,0,0,1,0]}(n)))}:null},"hue-rotate":function(t){return t?function(n){return t.setAttribute("values",I(n))}:null},invert:function(t,n,r){return(t=yt(r,n))?function(n){n=I(n)+" "+I(1-n),t.map((function(t){return t.setAttribute("tableValues",n)}))}:null},opacity:function(t,n,r){return(t=r.getElementById(n+"-A"))?function(n){return t.setAttribute("tableValues","0 "+I(n))}:null},saturate:function(t){return t?function(n){return t.setAttribute("values",I(n))}:null},sepia:function(t){return t?function(n){return t.setAttribute("values",E(function(t){return[.393+.607*(t=1-t),.769-.769*t,.189-.189*t,0,0,.349-.349*t,.686+.314*t,.168-.168*t,0,0,.272-.272*t,.534-.534*t,.131+.869*t,0,0,0,0,0,1,0]}(n)))}:null}};var ht=["R","G","B"];function yt(t,n){var r=ht.map((function(r){return t.getElementById(n+"-"+r)||null}));return-1!==r.indexOf(null)?null:r}var dt={fill:lt,"fill-opacity":ot,stroke:lt,"stroke-opacity":ot,"stroke-width":ut,"stroke-dashoffset":{f:I,i:d},"stroke-dasharray":at,opacity:ot,transform:function(n,r,e,i){if(!(n=function(n,r){if(!n||"object"!==t(n))return null;var e=!1;for(var i in n)n.hasOwnProperty(i)&&(n[i]&&n[i].length?(n[i].forEach((function(t){t.e&&(t.e=r(t.e))})),e=!0):delete n[i]);return e?n:null}(n,i)))return null;var u=function(t,i,u){var o=arguments.length>3&&void 0!==arguments[3]?arguments[3]:null;return n[t]?e(i,n[t],u):r&&r[t]?r[t]:o};return r&&r.a&&n.o?function(t){var r=e(t,n.o,tt);return rt.recomposeSelf(r,u("r",t,d,0)+r.a,u("k",t,m),u("s",t,m),u("t",t,m)).toString()}:function(t){return rt.recomposeSelf(u("o",t,X,null),u("r",t,d,0),u("k",t,m),u("s",t,m),u("t",t,m)).toString()}},"#filter":function(t,n,r,e,i,u,o,a){if(!n.items||!t||!t.length)return null;var l=function(t,n){var r=(t=t.map((function(t){return t&&vt[t[0]]?(n.getElementById(t[1]),vt[t[0]](n.getElementById(t[1]),t[1],n)):null}))).length;return function(n){for(var e=0;e<r;e++)t[e]&&t[e](n[e].value)}}(n.items,a);return l?(t=function(t,n){return t.map((function(t){return t.e=n(t.e),t}))}(t,e),function(n){l(r(n,t,ct))}):null},"#line":it,points:{f:E,i:x},d:et,r:ut,"#size":q,"#radius":j,_:function(t,n){if(Array.isArray(t))for(var r=0;r<t.length;r++)this[t[r]]=n;else this[t]=n}},gt=function(){function t(r){n(this,t),this.list=r,this.length=r.length}return e(t,[{key:"setAttribute",value:function(t,n){for(var r=this.list,e=0;e<this.length;e++)r[e].setAttribute(t,n)}},{key:"removeAttribute",value:function(t){for(var n=this.list,r=0;r<this.length;r++)n[r].removeAttribute(t)}},{key:"style",value:function(t,n){for(var r=this.list,e=0;e<this.length;e++)r[e].style[t]=n}}]),t}(),mt=/-./g,pt=function(t,n){return n.toUpperCase()};function bt(t){return"function"==typeof t?t:y}function wt(t){return t?"function"==typeof t?t:Array.isArray(t)?function(t){var n=arguments.length>1&&void 0!==arguments[1]?arguments[1]:o;if(!Array.isArray(t))return n;switch(t.length){case 1:return c(t[0])||n;case 2:return c(t[0],t[1])||n;case 4:return l(t[0],t[1],t[2],t[3])||n}return n}(t,null):function(t,n){var r=arguments.length>2&&void 0!==arguments[2]?arguments[2]:o;switch(t){case"linear":return o;case"steps":return c(n.steps||1,n.jump||0)||r;case"bezier":case"cubic-bezier":return l(n.x1||0,n.y1||0,n.x2||0,n.y2||0)||r}return r}(t.type,t.value,null):null}function At(t,n,r){var e=arguments.length>3&&void 0!==arguments[3]&&arguments[3],i=n.length-1;if(t<=n[0].t)return e?[0,0,n[0].v]:n[0].v;if(t>=n[i].t)return e?[i,1,n[i].v]:n[i].v;var u,o=n[0],a=null;for(u=1;u<=i;u++){if(!(t>n[u].t)){a=n[u];break}o=n[u]}return null==a?e?[i,1,n[i].v]:n[i].v:o.t===a.t?e?[u,1,a.v]:a.v:(t=(t-o.t)/(a.t-o.t),o.e&&(t=o.e(t)),e?[u,t,r(t,o.v,a.v)]:r(t,o.v,a.v))}function xt(t,n){var r=arguments.length>2&&void 0!==arguments[2]?arguments[2]:null;return t&&t.length?"function"!=typeof n?null:("function"!=typeof r&&(r=null),function(e){var i=At(e,t,n);return null!=i&&r&&(i=r(i)),i}):null}function kt(t,n){return t.t-n.t}function St(n,r,e,i,u){var o,a="@"===e[0],l="#"===e[0],f=dt[e],s=y;switch(a?(o=e.substr(1),e=o.replace(mt,pt)):l&&(e=e.substr(1)),t(f)){case"function":if(s=f(i,u,At,wt,e,a,r,n),l)return s;break;case"string":s=xt(i,bt(f));break;case"object":if((s=xt(i,bt(f.i),f.f))&&"function"==typeof f.u)return f.u(r,s,e,a,n)}return s?function(t,n,r){if(arguments.length>3&&void 0!==arguments[3]&&arguments[3])return t instanceof gt?function(e){return t.style(n,r(e))}:function(e){return t.style[n]=r(e)};if(Array.isArray(n)){var e=n.length;return function(i){var u=r(i);if(null==u)for(var o=0;o<e;o++)t[o].removeAttribute(n);else for(var a=0;a<e;a++)t[a].setAttribute(n,u)}}return function(e){var i=r(e);null==i?t.removeAttribute(n):t.setAttribute(n,i)}}(r,e,s,a):null}function _t(n,r,e,i){if(!i||"object"!==t(i))return null;var u=null,o=null;return Array.isArray(i)?o=function(t){if(!t||!t.length)return null;for(var n=0;n<t.length;n++)t[n].e&&(t[n].e=wt(t[n].e));return t.sort(kt)}(i):(o=i.keys,u=i.data||null),o?St(n,r,e,o,u):null}function Mt(t,n,r){if(!r)return null;var e=[];for(var i in r)if(r.hasOwnProperty(i)){var u=_t(t,n,i,r[i]);u&&e.push(u)}return e.length?e:null}function It(t,n){if(!n.duration||n.duration<0)return null;var r=function(t,n){if(!n)return null;var r=[];if(Array.isArray(n))for(var e=n.length,i=0;i<e;i++){var u=n[i];if(2===u.length){var o=null;if("string"==typeof u[0])o=t.getElementById(u[0]);else if(Array.isArray(u[0])){o=[];for(var a=0;a<u[0].length;a++)if("string"==typeof u[0][a]){var l=t.getElementById(u[0][a]);l&&o.push(l)}o=o.length?1===o.length?o[0]:new gt(o):null}if(o){var f=Mt(t,o,u[1]);f&&(r=r.concat(f))}}}else for(var s in n)if(n.hasOwnProperty(s)){var c=t.getElementById(s);if(c){var v=Mt(t,c,n[s]);v&&(r=r.concat(v))}}return r.length?r:null}(t,n.elements);return r?function(t,n){var r=arguments.length>2&&void 0!==arguments[2]?arguments[2]:1/0,e=arguments.length>3&&void 0!==arguments[3]?arguments[3]:1,i=arguments.length>4&&void 0!==arguments[4]&&arguments[4],u=arguments.length>5&&void 0!==arguments[5]?arguments[5]:1,o=t.length,a=e>0?n:0;i&&r%2==0&&(a=n-a);var l=null;return function(f,s){var c=f%n,v=1+(f-c)/n;s*=e,i&&v%2==0&&(s=-s);var h=!1;if(v>r)c=a,h=!0,-1===u&&(c=e>0?0:n);else if(s<0&&(c=n-c),c===l)return!1;l=c;for(var y=0;y<o;y++)t[y](c);return h}}(r,n.duration,n.iterations||1/0,n.direction||1,!!n.alternate,n.fill||1):null}var Et=function(){function t(r){var e=arguments.length>1&&void 0!==arguments[1]?arguments[1]:{};n(this,t),this._id=0,this._running=!1,this._animations=r,this.direction=e.direction||1,this.speed=e.speed||1,this.fps=e.fps||100,this.offset=e.offset||0}return e(t,[{key:"_start",value:function(){var t=this,n=arguments.length>0&&void 0!==arguments[0]?arguments[0]:0,r=-1/0,e=null,i={},u=function u(o){t._running=!0,null==e&&(e=o);var a=Math.round((o-e+n)*t.speed),l=t.fps?1e3/t.fps:0;if(a>r+l){t.offset=a,r=a;for(var f=t._animations,s=f.length,c=0,v=0;v<s;v++)i[v]?c++:(i[v]=f[v](a,t.direction),i[v]&&c++);if(c===s)return void t._stop()}t._id=window.requestAnimationFrame(u)};this._id=window.requestAnimationFrame(u)}},{key:"_stop",value:function(){this._id&&window.cancelAnimationFrame(this._id),this._running=!1}},{key:"play",value:function(){this._running||this._start(this.offset)}},{key:"stop",value:function(){this._stop(),this.offset=0;var t=this.direction,n=this._animations;requestAnimationFrame((function(){for(var r=0;r<n.length;r++)n[r](0,t)}))}},{key:"restart",value:function(){this._stop(),this.offset=0,this._start()}},{key:"pause",value:function(){this._stop()}},{key:"reverse",value:function(){this.direction=-this.direction}}],[{key:"build",value:function(n){if(!(n=function(t){if(!t||!t.root||!Array.isArray(t.animations))return null;var n=window.document.getElementById(t.root);if(!n)return null;var r=t.animations.map((function(t){return It(n,t)})).filter((function(t){return!!t}));return r.length?{element:n,animations:r,options:t.options||void 0}:null}(n)))return null;var r=n.element,e=n.options||{},i=new t(n.animations,n.options);return function(t,n,r){var e=arguments.length>3&&void 0!==arguments[3]?arguments[3]:null;if("click"===r){return void n.addEventListener("click",(function r(){n.removeEventListener("click",r),t.play()}))}if("hover"===r)return n.addEventListener("mouseenter",(function(){return t.play()})),void n.addEventListener("mouseleave","freeze"===e?function(){return t.pause()}:function(){return t.stop()});t.play()}(i,r,e.start,e.hover),i}}]),t}();return function(){for(var t=0,n=["ms","moz","webkit","o"],r=0;r<n.length&&!window.requestAnimationFrame;++r)window.requestAnimationFrame=window[n[r]+"RequestAnimationFrame"],window.cancelAnimationFrame=window[n[r]+"CancelAnimationFrame"]||window[n[r]+"CancelRequestAnimationFrame"];window.requestAnimationFrame||(window.requestAnimationFrame=function(n){var r=Date.now(),e=Math.max(0,16-(r-t)),i=window.setTimeout((function(){n(r+e)}),e);return t=r+e,i},window.cancelAnimationFrame=window.clearTimeout)}(),Et}));
__SVGATOR_PLAYER__.build({"root":"ercz4gzdpid1","animations":[{"duration":5000,"direction":1,"iterations":1,"fill":1,"alternate":false,"elements":{"ercz4gzdpid3":{"stroke-dashoffset":[{"t":4400,"v":941.98},{"t":5000,"v":428.17272727272734}]},"ercz4gzdpid28":{"opacity":[{"t":300,"v":0},{"t":600,"v":1}]},"ercz4gzdpid29":{"opacity":[{"t":600,"v":0},{"t":900,"v":1}]},"ercz4gzdpid30":{"opacity":[{"t":900,"v":0},{"t":1200,"v":1}]},"ercz4gzdpid31":{"opacity":[{"t":0,"v":1},{"t":300,"v":1}]},"ercz4gzdpid33":{"opacity":[{"t":2200,"v":0},{"t":2500,"v":1}]},"ercz4gzdpid34":{"opacity":[{"t":2500,"v":0},{"t":2800,"v":1}]},"ercz4gzdpid35":{"opacity":[{"t":1800,"v":0},{"t":2100,"v":1}]},"ercz4gzdpid36":{"opacity":[{"t":1500,"v":1},{"t":1800,"v":1}],"fill-opacity":[{"t":1500,"v":0},{"t":1800,"v":1}]},"ercz4gzdpid37":{"opacity":[{"t":2900,"v":0},{"t":3200,"v":1}]},"ercz4gzdpid38":{"opacity":[{"t":1200,"v":0},{"t":1500,"v":1}]},"ercz4gzdpid39":{"opacity":[{"t":3200,"v":0},{"t":3500,"v":1}]},"ercz4gzdpid43":{"opacity":[{"t":4400,"v":0},{"t":4700,"v":1}]},"ercz4gzdpid44":{"opacity":[{"t":3500,"v":0},{"t":3800,"v":1}]},"ercz4gzdpid45":{"opacity":[{"t":3800,"v":0},{"t":4100,"v":0.98}]},"ercz4gzdpid46":{"opacity":[{"t":4100,"v":0},{"t":4400,"v":1}]},"ercz4gzdpid47":{"opacity":[{"t":4100,"v":0},{"t":4400,"v":1}]}}}],"options":{"start":"load","hover":"freeze"}})]]></script></svg>