<svg id="e719slsxbked1" xmlns="http://www.w3.org/2000/svg" xmlns:xlink="http://www.w3.org/1999/xlink" viewBox="0 0 300 300" shape-rendering="geometricPrecision" text-rendering="geometricPrecision"><path id="e719slsxbked2" d="M0,0L300,0L300,141.230000C298.290000,113.590000,289.010000,86.620000,273.010000,63.990000C254.930000,38.190000,228.640000,18.340000,198.800000,8.210000C174.920000,0,148.940000,-1.940000,124.090000,2.440000C96.530000,7.220000,70.500000,20,49.780000,38.780000C27.610000,58.700000,11.620000,85.320000,4.570000,114.290000C-2.360000,142.530000,-0.920000,172.850000,8.840000,200.250000C19.130000,229.450000,38.740000,255.140000,64.070000,272.910000C87.190000,289.230000,114.810000,298.570000,143.060000,300L0,300L0,0Z" fill="rgba(172,31,31,0)" stroke="none" stroke-width="1"/><path id="e719slsxbked3" d="M198.800000,8.769388C228.640000,18.899388,254.930000,38.749388,273.010000,64.549388C289.010000,87.179388,298.290000,114.149388,300,141.789388L300,159.499388C298.340000,186.859388,289.230000,213.589388,273.530000,236.089388C256.060000,261.289388,230.820000,280.949388,202,291.479388C187.750000,296.769388,172.770000,299.649388,157.620000,300.559388L143.060000,300.559388C114.810000,299.129388,87.190000,289.789388,64.070000,273.469388C38.740000,255.699388,19.130000,230.009388,8.840000,200.809388C-0.920000,173.409388,-2.360000,143.089388,4.570000,114.849388C11.620000,85.879388,27.610000,59.259388,49.780000,39.339388C70.500000,20.559388,96.530000,7.779388,124.090000,2.999388C148.940000,-1.380612,174.920000,0.559388,198.800000,8.769388Z" fill="rgb(35,133,154)" stroke="none" stroke-width="1"/><path id="e719slsxbked4" d="M176.850000,83.960000C169.940000,86.580000,161.570000,86.630000,154.670000,83.960000C161.170000,80.940000,170.340000,81,176.850000,83.960000Z" fill="rgb(255,255,255)" stroke="none" stroke-width="1"/><path id="e719slsxbked5" d="M164.650000,86.530000L166.770000,86.520000C166.760000,88.850000,166.760000,91.180000,166.750000,93.510000C174.660000,94.120000,180.820000,97.900000,187.580000,101.580000C188.720000,102.440000,189.650000,103.630000,190.620000,104.670000C204.650000,104.660000,218.690000,104.800000,232.720000,104.600000C235.250000,102.330000,237.530000,102.070000,240.800000,101.810000C240.840000,99.660000,240.910000,97.510000,241.070000,95.360000C243.820000,97.100000,243.110000,99.060000,243.470000,101.880000C245.350000,102.100000,247.400000,102.120000,249.190000,102.770000C251.450000,104.230000,251.500000,107.790000,249.170000,109.230000C247.350000,109.830000,245.290000,109.810000,243.400000,110.040000C243.280000,112.030000,243.110000,114.010000,242.860000,115.980000C240.890000,114.250000,240.900000,112.430000,240.520000,110.040000C237.280000,109.840000,235.230000,109.570000,232.680000,107.390000C218.650000,107.190000,204.610000,107.340000,190.570000,107.310000C189.460000,108.580000,188.360000,110.070000,186.970000,111.050000C185.520000,111.730000,183.620000,111.650000,182.050000,111.710000C172.870000,111.680000,163.680000,111.680000,154.500000,111.680000C154.500000,112.870000,154.500000,114.050000,154.500000,115.240000C151.720000,115.230000,148.930000,115.240000,146.150000,115.240000C146.030000,114.050000,145.920000,112.860000,145.810000,111.670000C136.860000,111.700000,127.920000,111.670000,118.970000,111.720000C117.300000,111.660000,115.380000,111.770000,113.790000,111.170000C112.240000,110.370000,111.110000,108.640000,110.010000,107.320000C95.950000,107.310000,81.890000,107.240000,67.830000,107.360000C65.210000,109.600000,63.040000,109.850000,59.670000,110.080000C59.620000,111.690000,59.560000,113.310000,59.500000,114.920000C58.750000,114.890000,58,114.850000,57.260000,114.810000C57.200000,113.210000,57.160000,111.610000,57.120000,110.010000C55.280000,109.820000,53.310000,109.840000,51.530000,109.300000C48.860000,108.080000,48.900000,103.910000,51.530000,102.670000C53.250000,102.120000,55.170000,102.070000,56.960000,101.850000C57.150000,99.520000,57.420000,97.210000,57.980000,94.930000C59.400000,97.110000,59.660000,99.270000,59.870000,101.800000C63.180000,102.080000,65.270000,102.460000,67.830000,104.630000C81.860000,104.740000,95.900000,104.710000,109.940000,104.650000C111.210000,103.280000,112.200000,101.880000,113.890000,101.020000C118.300000,98.850000,122.210000,96.210000,126.980000,94.810000C130.290000,93.710000,133.560000,93.760000,137,93.750000C146.220000,93.810000,155.440000,93.770000,164.660000,93.780000C164.650000,91.370000,164.650000,88.950000,164.650000,86.530000Z" fill="rgb(255,255,255)" stroke="none" stroke-width="1"/><path id="e719slsxbked6" d="M53.700000,93.740000C54.480000,95.110000,55.250000,96.480000,56.030000,97.850000C55.060000,98.520000,54.080000,99.190000,53.110000,99.870000C43.890000,97.820000,34.800000,98.510000,25.540000,97.370000C34.830000,95.810000,44.320000,94.750000,53.700000,93.740000Z" fill="rgb(255,255,255)" stroke="none" stroke-width="1"/><path id="e719slsxbked7" d="M63.520000,93.730000C72.900000,94.780000,82.390000,95.820000,91.710000,97.350000C82.420000,98.530000,73.270000,97.810000,64.030000,99.870000C63.070000,99.190000,62.110000,98.500000,61.150000,97.820000C61.940000,96.450000,62.730000,95.090000,63.520000,93.730000Z" fill="rgb(255,255,255)" stroke="none" stroke-width="1"/><path id="e719slsxbked8" d="M237.050000,93.760000C237.800000,95.120000,238.560000,96.490000,239.310000,97.860000C238.350000,98.530000,237.380000,99.200000,236.410000,99.880000C227.170000,97.810000,218.130000,98.510000,208.840000,97.380000C218.140000,95.790000,227.660000,94.730000,237.050000,93.760000Z" fill="rgb(255,255,255)" stroke="none" stroke-width="1"/><path id="e719slsxbked9" d="M246.830000,93.850000C252.210000,94.050000,257.630000,95.010000,262.980000,95.680000C267.030000,96.250000,271.020000,96.430000,274.920000,97.370000C265.640000,98.510000,256.540000,97.820000,247.310000,99.870000C246.330000,99.170000,245.360000,98.470000,244.380000,97.770000C245.180000,96.440000,245.970000,95.130000,246.830000,93.850000Z" fill="rgb(255,255,255)" stroke="none" stroke-width="1"/><path id="e719slsxbked10" d="M53.010000,112.220000C54.070000,112.780000,55.110000,113.380000,56.160000,113.970000C55.300000,115.400000,54.440000,116.840000,53.570000,118.260000C44.240000,117.080000,34.790000,116.210000,25.540000,114.520000C34.720000,113.600000,43.890000,113.910000,53.010000,112.220000Z" fill="rgb(255,255,255)" stroke="none" stroke-width="1"/><path id="e719slsxbked11" d="M64.150000,112.230000C73.300000,113.900000,82.500000,113.610000,91.710000,114.520000C82.420000,116.190000,72.920000,117.110000,63.540000,118.250000C62.710000,116.830000,61.880000,115.410000,61.050000,113.990000C62.070000,113.390000,63.100000,112.780000,64.150000,112.230000Z" fill="rgb(255,255,255)" stroke="none" stroke-width="1"/><path id="e719slsxbked12" d="M236.260000,112.220000C237.330000,112.760000,238.370000,113.350000,239.410000,113.920000C238.620000,115.360000,237.820000,116.790000,237.030000,118.230000C227.640000,117.170000,218.140000,116.170000,208.840000,114.540000C217.990000,113.570000,227.150000,113.930000,236.260000,112.220000Z" fill="rgb(255,255,255)" stroke="none" stroke-width="1"/><path id="e719slsxbked13" d="M256.060000,113.330000C262.350000,113.990000,268.680000,113.710000,274.940000,114.550000C265.640000,116.180000,256.130000,117.130000,246.750000,118.250000C245.920000,116.730000,245.090000,115.210000,244.260000,113.690000C248.370000,111.270000,251.680000,113.130000,256.060000,113.330000Z" fill="rgb(255,255,255)" stroke="none" stroke-width="1"/><path id="e719slsxbked14" d="M135,116.850000C147.360000,116.970000,159.740000,116.720000,172.090000,116.950000C180.500000,117.280000,187.730000,124.500000,187.870000,132.950000C187.940000,142.640000,187.990000,152.350000,187.850000,162.030000C187.570000,164.640000,187.270000,164.530000,184.700000,164.460000C184,161.380000,184.190000,157.980000,184.160000,154.840000C183.180000,154.830000,182.190000,154.830000,181.200000,154.820000C181.200000,151.940000,181.200000,149.070000,181.200000,146.190000C182.200000,146.180000,183.190000,146.180000,184.190000,146.170000C184.090000,141.170000,184.600000,135.980000,183.790000,131.040000C182.610000,125.080000,177.130000,120.730000,171.080000,120.720000C157.370000,120.640000,143.640000,120.690000,129.940000,120.700000C123.330000,120.520000,117.310000,125.450000,116.530000,132.050000C116.130000,136.730000,116.430000,141.470000,116.380000,146.170000C117.350000,146.180000,118.330000,146.190000,119.310000,146.200000C119.310000,149.070000,119.310000,151.940000,119.310000,154.810000C118.340000,154.820000,117.370000,154.830000,116.410000,154.840000C116.380000,157.650000,116.490000,160.520000,116.180000,163.320000C115.110000,163.930000,114,164.480000,112.850000,164.960000C112.280000,154.650000,112.680000,144.280000,112.570000,133.960000C112.440000,127.280000,116.360000,121.180000,122.390000,118.390000C126.310000,116.530000,130.770000,116.880000,135,116.850000Z" fill="rgb(255,255,255)" stroke="none" stroke-width="1"/><path id="e719slsxbked15" d="M145.900000,122.140000C148.770000,122.110000,151.630000,122.100000,154.500000,122.090000C154.500000,125.680000,154.500000,129.280000,154.500000,132.870000C151.640000,132.860000,148.770000,132.850000,145.900000,132.820000C145.910000,129.260000,145.910000,125.700000,145.900000,122.140000Z" fill="rgb(255,255,255)" stroke="none" stroke-width="1"/><path id="e719slsxbked16" d="M129.980000,134.460000C143.650000,134.440000,157.360000,134.390000,171.030000,134.480000C173.960000,134.480000,176.160000,136.200000,176.510000,139.170000C176.900000,145.760000,176.530000,152.410000,176.690000,159.020000C176.570000,161.790000,177.040000,164.720000,174.700000,166.730000C173.250000,168.100000,170.870000,167.810000,169.030000,167.920000C155.990000,167.840000,142.950000,167.930000,129.920000,167.880000C127.150000,167.990000,124.860000,166.900000,124.160000,164.060000C123.470000,160.130000,123.890000,155.980000,123.800000,152C123.950000,147.450000,123.380000,142.670000,124.200000,138.200000C124.960000,135.460000,127.320000,134.420000,129.980000,134.460000Z" fill="rgb(255,255,255)" stroke="none" stroke-width="1"/><path id="e719slsxbked17" d="M146.440000,141.490000C151.630000,139.360000,157.780000,142.030000,159.750000,147.290000C161.980000,152.890000,158.640000,159.280000,152.870000,160.810000C147.260000,162.440000,141.180000,158.480000,140.230000,152.760000C139.370000,148,142,143.330000,146.440000,141.490000Z" fill="rgb(154,35,36)" stroke="none" stroke-width="1"/><path id="e719slsxbked18" d="M147.170000,143.709388C151.220000,142.129388,155.890000,143.879388,157.780000,147.809388C159.890000,151.999388,157.980000,157.309388,153.690000,159.179388C149.510000,160.999388,144.540000,159.199388,142.630000,155.049388C140.570000,150.749388,142.730000,145.409388,147.170000,143.709388Z" fill="rgb(255,255,255)" stroke="none" stroke-width="1"/><path id="e719slsxbked19" d="M169.060000,148.310000C170.120000,149.670000,170.470000,151.230000,170.910000,152.860000C169.220000,152.500000,167.710000,152.080000,166.280000,151.070000C167.150000,150.070000,168.080000,149.150000,169.060000,148.310000Z" fill="rgb(154,35,36)" stroke="none" stroke-width="1"/><path id="e719slsxbked20" d="M300,158.940000L300,300L157.620000,300C172.770000,299.090000,187.750000,296.210000,202,290.920000C230.820000,280.390000,256.060000,260.730000,273.530000,235.530000C289.230000,213.030000,298.340000,186.300000,300,158.940000Z" fill="rgba(216,55,55,0)" stroke="none" stroke-width="1"/><path id="e719slsxbked21" d="M241.480000,187.480000C244.890000,191.560000,245.540000,197.830000,248.860000,202.120000C251.290000,205.390000,254.940000,207.490000,257.350000,210.670000C259.780000,213.670000,258.110000,218.380000,260.720000,221.210000C263,224.010000,265.280000,226.310000,265.770000,230.090000C266.850000,234.480000,263.020000,237.500000,260.690000,240.670000C234.400000,272.790000,193.860000,292.940000,152.180000,292.720000C157.030000,291.910000,161.830000,291.230000,166.480000,289.550000C166.600000,288.670000,166.720000,287.790000,166.840000,286.910000C170.310000,285.840000,173.840000,285,177.340000,284.060000C173.150000,282.020000,168.530000,281.460000,164.460000,279.150000C167.490000,276.870000,170.230000,275.660000,174,275.180000C179.300000,274.480000,184.370000,273.510000,189.010000,270.720000C183.680000,267.970000,178.440000,268.650000,172.710000,268.320000C172.240000,267.690000,171.770000,267.070000,171.300000,266.440000C165.220000,266,159.730000,266.700000,154,264.120000C155.600000,263.230000,157.190000,262.340000,158.780000,261.430000C152.490000,260.590000,146.300000,261.290000,140,261.030000C133.320000,260.810000,126.660000,261.310000,119.980000,261.100000C112.910000,260.910000,105.110000,262.100000,98.200000,260.640000C97.930000,258.670000,100.690000,257.990000,101.900000,256.900000C97.350000,255.430000,92.730000,255.250000,87.980000,255.140000C75.570000,254.150000,63.670000,254.470000,51.260000,252.460000C50.020000,252.020000,49,250.820000,48.050000,249.950000C43.300000,245.080000,38.930000,239.740000,34.810000,234.330000C39.240000,234.300000,43.680000,234.310000,48.120000,234.300000C51.640000,231.890000,55.360000,228.840000,59.470000,227.560000C64.830000,226.640000,69.860000,228.070000,74.790000,224.780000C79.930000,221.110000,83.190000,215.190000,87.980000,210.970000C90.180000,214.260000,91.850000,218.570000,94.880000,221.150000C97.920000,223.920000,103.170000,220.220000,106.830000,222.120000C111.610000,224.270000,114.160000,228.070000,120,227.060000C126.210000,226.100000,130.640000,228.900000,136.110000,231.070000C139.500000,232.520000,143.040000,230.560000,146.020000,229C155.500000,223.530000,163.910000,216.030000,173.130000,210.120000C175.410000,208.720000,178.310000,207.140000,181.070000,207.370000C185.430000,208.460000,188.200000,212.250000,193,211.920000C197.730000,212.160000,200.640000,206.890000,204.920000,205.310000C208.860000,204.670000,214.400000,207.240000,217.730000,204.740000C223.630000,200.770000,226,191.890000,231.590000,187.570000C234.450000,185.490000,238.840000,184.500000,241.480000,187.480000Z" fill="rgb(255,255,255)" stroke="none" stroke-width="1"/></svg>