<svg id="eabq8heibdib1" xmlns="http://www.w3.org/2000/svg" xmlns:xlink="http://www.w3.org/1999/xlink" viewBox="-800 -50 3000 600" shape-rendering="geometricPrecision" text-rendering="geometricPrecision"><path id="eabq8heibdib2" d="M-595.100603,-54.898306L1075.041144,-54.898306L1075.041144,193.169526C1065.521336,144.620387,1013.858285,97.248091,924.784058,57.498923C824.130182,12.181709,677.770094,-22.684442,511.646662,-40.477596C378.703378,-54.898306,234.069103,-58.305879,95.725695,-50.612492C-57.704660,-42.216512,-202.617292,-19.768683,-317.968416,13.218033C-441.391891,48.207137,-530.410446,94.964665,-569.658777,145.849924C-608.239051,195.452952,-600.222371,248.709460,-545.887093,296.837044C-488.601231,348.126293,-379.429632,393.250294,-238.413997,424.462964C-109.701740,453.128736,44.062644,469.534270,201.334325,472.046038L-595.100603,472.046038L-595.100603,-54.898306Z" transform="matrix(1 0 0 1 -31.03027064999910 4.89830599999928)" fill="rgba(151,45,45,0)" stroke="none" stroke-width="1"/><path id="eabq8heibdib3" d="M200.366961,8.754372C230.233158,18.865473,256.546238,38.678441,274.642110,64.430307C290.656157,87.018088,299.944304,113.937772,301.655805,141.526206L301.655805,159.203166C299.994348,186.512122,290.876350,213.192254,275.162567,235.650277C257.677230,260.803263,232.415072,280.426585,203.569771,290.936940C189.307260,296.217071,174.314110,299.091698,159.150809,300L144.578027,300C116.303226,298.572668,88.658979,289.250093,65.518682,272.960540C40.166444,255.223692,20.539229,229.581620,10.240195,200.436097C0.471627,173.087215,-0.969637,142.823781,5.966446,114.636466C13.022636,85.720513,29.026673,59.150176,51.216136,39.267340C71.954326,20.522376,98.007178,7.766219,125.591373,2.995137C150.463189,-1.376692,176.465997,0.559689,200.366961,8.754372Z" transform="matrix(1 0 0 1 6.98021608000008 0.60678179500007)" fill="rgba(35,133,154,0)" stroke="rgb(214,173,173)" stroke-width="1" stroke-dashoffset="428.172727"/><path id="eabq8heibdib4" d="M176.850000,83.056304C169.940000,86.869817,161.570000,86.942594,154.670000,83.056304C161.170000,78.660575,170.340000,78.747907,176.850000,83.056304Z" transform="matrix(1 0 0 1 0.52000000000001 -0.00000000000003)" fill="rgb(147,135,153)" stroke="none" stroke-width="1"/><path id="eabq8heibdib5" d="M164.650000,88.023101L166.770000,88.013101C166.760000,90.343101,166.760000,92.673101,166.750000,95.003101C174.660000,95.613101,180.820000,99.393101,187.580000,103.073101C188.720000,103.933101,189.650000,105.123101,190.620000,106.163101C204.650000,106.153101,218.690000,106.293101,232.720000,106.093101C235.250000,103.823101,237.530000,103.563101,240.800000,103.303101C240.840000,101.153101,240.910000,99.003101,241.070000,96.853101C243.820000,98.593101,243.110000,100.553101,243.470000,103.373101C245.350000,103.593101,247.400000,103.613101,249.190000,104.263101C251.450000,105.723101,251.500000,109.283101,249.170000,110.723101C247.350000,111.323101,245.290000,111.303101,243.400000,111.533101C243.280000,113.523101,243.110000,115.503101,242.860000,117.473101C240.890000,115.743101,240.900000,113.923101,240.520000,111.533101C237.280000,111.333101,235.230000,111.063101,232.680000,108.883101C218.650000,108.683101,204.610000,108.833101,190.570000,108.803101C189.460000,110.073101,188.360000,111.563101,186.970000,112.543101C185.520000,113.223101,183.620000,113.143101,182.050000,113.203101C172.870000,113.173101,163.680000,113.173101,154.500000,113.173101C154.500000,114.363101,154.500000,115.543101,154.500000,116.733101C151.720000,116.723101,148.930000,116.733101,146.150000,116.733101C146.030000,115.543101,145.920000,114.353101,145.810000,113.163101C136.860000,113.193101,127.920000,113.163101,118.970000,113.213101C117.300000,113.153101,115.380000,113.263101,113.790000,112.663101C112.240000,111.863101,111.110000,110.133101,110.010000,108.813101C95.950000,108.803101,81.890000,108.733101,67.830000,108.853101C65.210000,111.093101,63.040000,111.343101,59.670000,111.573101C59.620000,113.183101,59.560000,114.803101,59.500000,116.413101C58.750000,116.383101,58,116.343101,57.260000,116.303101C57.200000,114.703101,57.160000,113.103101,57.120000,111.503101C55.280000,111.313101,53.310000,111.333101,51.530000,110.793101C48.860000,109.573101,48.900000,105.403101,51.530000,104.163101C53.250000,103.613101,55.170000,103.563101,56.960000,103.343101C57.150000,101.013101,57.420000,98.703101,57.980000,96.423101C59.400000,98.603101,59.660000,100.763101,59.870000,103.293101C63.180000,103.573101,65.270000,103.953101,67.830000,106.123101C81.860000,106.233101,95.900000,106.203101,109.940000,106.143101C111.210000,104.773101,112.200000,103.373101,113.890000,102.513101C118.300000,100.343101,122.210000,97.703101,126.980000,96.303101C130.290000,95.203101,133.560000,95.253101,137,95.243101C146.220000,95.303101,155.440000,95.263101,164.660000,95.273101C164.650000,92.863101,164.650000,90.443101,164.650000,88.023101Z" transform="matrix(1 0 0 1 1.28075645000001 -0.63139222000000)" fill="rgb(147,135,153)" stroke="none" stroke-width="1"/><path id="eabq8heibdib6" d="M53.700000,93.740000C54.480000,95.110000,55.250000,96.480000,56.030000,97.850000C55.060000,98.520000,54.080000,99.190000,53.110000,99.870000C43.890000,97.820000,34.800000,98.510000,25.540000,97.370000C34.830000,95.810000,44.320000,94.750000,53.700000,93.740000Z" fill="rgb(0,109,128)" stroke="none" stroke-width="1"/><path id="eabq8heibdib7" d="M63.520000,93.730000C72.900000,94.780000,82.390000,95.820000,91.710000,97.350000C82.420000,98.530000,73.270000,97.810000,64.030000,99.870000C63.070000,99.190000,62.110000,98.500000,61.150000,97.820000C61.940000,96.450000,62.730000,95.090000,63.520000,93.730000Z" fill="rgb(0,109,128)" stroke="none" stroke-width="1"/><path id="eabq8heibdib8" d="M237.050000,93.760000C237.800000,95.120000,238.560000,96.490000,239.310000,97.860000C238.350000,98.530000,237.380000,99.200000,236.410000,99.880000C227.170000,97.810000,218.130000,98.510000,208.840000,97.380000C218.140000,95.790000,227.660000,94.730000,237.050000,93.760000Z" transform="matrix(1 0 0 1 0.09999999999999 -0.00999999999999)" fill="rgb(0,109,128)" stroke="none" stroke-width="1"/><path id="eabq8heibdib9" d="M246.830000,93.850000C252.210000,94.034046,257.630000,94.917466,262.980000,95.534020C267.030000,96.058551,271.020000,96.224192,274.920000,97.089208C265.640000,98.138270,256.540000,97.503311,247.310000,99.389782C246.330000,98.745621,245.360000,98.101461,244.380000,97.457300C245.180000,96.233395,245.970000,95.027894,246.830000,93.850000Z" transform="matrix(1 0 0 1 0.00000000000006 0.48021808999999)" fill="rgb(0,109,128)" stroke="none" stroke-width="1"/><path id="eabq8heibdib10" d="M53.010000,112.220000C54.070000,112.780000,55.110000,113.380000,56.160000,113.970000C55.300000,115.400000,54.440000,116.840000,53.570000,118.260000C44.240000,117.080000,34.790000,116.210000,25.540000,114.520000C34.720000,113.600000,43.890000,113.910000,53.010000,112.220000Z" fill="rgb(0,109,128)" stroke="none" stroke-width="1"/><path id="eabq8heibdib11" d="M64.150000,112.230000C73.300000,113.900000,82.500000,113.610000,91.710000,114.520000C82.420000,116.190000,72.920000,117.110000,63.540000,118.250000C62.710000,116.830000,61.880000,115.410000,61.050000,113.990000C62.070000,113.390000,63.100000,112.780000,64.150000,112.230000Z" fill="rgb(0,109,128)" stroke="none" stroke-width="1"/><path id="eabq8heibdib12" d="M236.260000,112.828649C237.330000,113.368649,238.370000,113.958649,239.410000,114.528649C238.620000,115.968649,237.820000,117.398649,237.030000,118.838649C227.640000,117.778649,218.140000,116.778649,208.840000,115.148649C217.990000,114.178649,227.150000,114.538649,236.260000,112.828649Z" fill="rgb(0,109,128)" stroke="none" stroke-width="1"/><path id="eabq8heibdib13" d="M256.668650,113.330000C262.958650,113.990000,269.288650,113.710000,275.548650,114.550000C266.248650,116.180000,256.738650,117.130000,247.358650,118.250000C246.528650,116.730000,245.698650,115.210000,244.868650,113.690000C248.978650,111.270000,252.288650,113.130000,256.668650,113.330000Z" fill="rgb(0,109,128)" stroke="none" stroke-width="1"/><path id="eabq8heibdib14" d="M135,116.850000C147.360000,116.970000,159.740000,116.720000,172.090000,116.950000C180.500000,117.280000,187.730000,124.500000,187.870000,132.950000C187.940000,142.640000,187.990000,152.350000,187.850000,162.030000C187.570000,164.640000,187.270000,164.530000,184.700000,164.460000C184,161.380000,184.190000,157.980000,184.160000,154.840000C183.180000,154.830000,182.190000,154.830000,181.200000,154.820000C181.200000,151.940000,181.200000,149.070000,181.200000,146.190000C182.200000,146.180000,183.190000,146.180000,184.190000,146.170000C184.090000,141.170000,184.600000,135.980000,183.790000,131.040000C182.610000,125.080000,177.130000,120.730000,171.080000,120.720000C157.370000,120.640000,143.640000,120.690000,129.940000,120.700000C123.330000,120.520000,117.310000,125.450000,116.530000,132.050000C116.130000,136.730000,116.430000,141.470000,116.380000,146.170000C117.350000,146.180000,118.330000,146.190000,119.310000,146.200000C119.310000,149.070000,119.310000,151.940000,119.310000,154.810000C118.340000,154.820000,117.370000,154.830000,116.410000,154.840000C116.380000,157.650000,116.490000,160.520000,116.180000,163.320000C115.110000,163.930000,114,164.480000,112.850000,164.960000C112.280000,154.650000,112.680000,144.280000,112.570000,133.960000C112.440000,127.280000,116.360000,121.180000,122.390000,118.390000C126.310000,116.530000,130.770000,116.880000,135,116.850000Z" fill="rgb(147,135,153)" stroke="none" stroke-width="1"/><path id="eabq8heibdib15" d="M145.900000,122.140000C148.770000,122.110000,151.630000,122.100000,154.500000,122.090000C154.500000,125.680000,154.500000,129.280000,154.500000,132.870000C151.640000,132.860000,148.770000,132.850000,145.900000,132.820000C145.910000,129.260000,145.910000,125.700000,145.900000,122.140000Z" fill="rgb(147,135,153)" stroke="none" stroke-width="1"/><path id="eabq8heibdib16" d="M129.980000,134.460000C143.650000,134.440000,157.360000,134.390000,171.030000,134.480000C173.960000,134.480000,176.160000,136.200000,176.510000,139.170000C176.900000,145.760000,176.530000,152.410000,176.690000,159.020000C176.570000,161.790000,177.040000,164.720000,174.700000,166.730000C173.250000,168.100000,170.870000,167.810000,169.030000,167.920000C155.990000,167.840000,142.950000,167.930000,129.920000,167.880000C127.150000,167.990000,124.860000,166.900000,124.160000,164.060000C123.470000,160.130000,123.890000,155.980000,123.800000,152C123.950000,147.450000,123.380000,142.670000,124.200000,138.200000C124.960000,135.460000,127.320000,134.420000,129.980000,134.460000Z" transform="matrix(1 0 0 1 0.16324284999999 -0.20689632000000)" fill="rgb(147,135,153)" stroke="none" stroke-width="1"/><path id="eabq8heibdib17" d="M146.440000,141.490000C151.630000,139.360000,157.780000,142.030000,159.750000,147.290000C161.980000,152.890000,158.640000,159.280000,152.870000,160.810000C147.260000,162.440000,141.180000,158.480000,140.230000,152.760000C139.370000,148,142,143.330000,146.440000,141.490000Z" fill="rgb(154,35,36)" stroke="none" stroke-width="1"/><path id="eabq8heibdib18" d="M147.170000,143.709388C151.220000,142.129388,155.890000,143.879388,157.780000,147.809388C159.890000,151.999388,157.980000,157.309388,153.690000,159.179388C149.510000,160.999388,144.540000,159.199388,142.630000,155.049388C140.570000,150.749388,142.730000,145.409388,147.170000,143.709388Z" transform="matrix(1 0 0 1 -0.00690976499999 1.29203200999999)" fill="rgb(0,109,128)" stroke="none" stroke-width="1"/><path id="eabq8heibdib19" d="M169.060000,148.310000C170.120000,149.670000,170.470000,151.230000,170.910000,152.860000C169.220000,152.500000,167.710000,152.080000,166.280000,151.070000C167.150000,150.070000,168.080000,149.150000,169.060000,148.310000Z" fill="rgb(154,35,36)" stroke="none" stroke-width="1"/><path id="eabq8heibdib20" d="M241.480000,188.725143C244.890000,192.805143,245.540000,199.075143,248.860000,203.365143C251.290000,206.635143,254.940000,208.735143,257.350000,211.915143C259.780000,214.915143,258.110000,219.625143,260.720000,222.455143C263,225.255143,265.280000,227.555143,265.770000,231.335143C266.850000,235.725143,263.020000,238.745143,260.690000,241.915143C234.400000,274.035143,193.860000,294.185143,152.180000,293.965143C157.030000,293.155143,161.830000,292.475143,166.480000,290.795143C166.600000,289.915143,166.720000,289.035143,166.840000,288.155143C170.310000,287.085143,173.840000,286.245143,177.340000,285.305143C173.150000,283.265143,168.530000,282.705143,164.460000,280.395143C167.490000,278.115143,170.230000,276.905143,174,276.425143C179.300000,275.725143,184.370000,274.755143,189.010000,271.965143C183.680000,269.215143,178.440000,269.895143,172.710000,269.565143C172.240000,268.935143,171.770000,268.315143,171.300000,267.685143C165.220000,267.245143,159.730000,267.945143,154,265.365143C155.600000,264.475143,157.190000,263.585143,158.780000,262.675143C152.490000,261.835143,146.300000,262.535143,140,262.275143C133.320000,262.055143,126.660000,262.555143,119.980000,262.345143C112.910000,262.155143,105.110000,263.345143,98.200000,261.885143C97.930000,259.915143,100.690000,259.235143,101.900000,258.145143C97.350000,256.675143,92.730000,256.495143,87.980000,256.385143C75.570000,255.395143,63.670000,255.715143,51.260000,253.705143C50.020000,253.265143,49,252.065143,48.050000,251.195143C43.300000,246.325143,38.930000,240.985143,34.810000,235.575143C39.240000,235.545143,43.680000,235.555143,48.120000,235.545143C51.640000,233.135143,55.360000,230.085143,59.470000,228.805143C64.830000,227.885143,69.860000,229.315143,74.790000,226.025143C79.930000,222.355143,83.190000,216.435143,87.980000,212.215143C90.180000,215.505143,91.850000,219.815143,94.880000,222.395143C97.920000,225.165143,103.170000,221.465143,106.830000,223.365143C111.610000,225.515143,114.160000,229.315143,120,228.305143C126.210000,227.345143,130.640000,230.145143,136.110000,232.315143C139.500000,233.765143,143.040000,231.805143,146.020000,230.245143C155.500000,224.775143,163.910000,217.275143,173.130000,211.365143C175.410000,209.965143,178.310000,208.385143,181.070000,208.615143C185.430000,209.705143,188.200000,213.495143,193,213.165143C197.730000,213.405143,200.640000,208.135143,204.920000,206.555143C208.860000,205.915143,214.400000,208.485143,217.730000,205.985143C223.630000,202.015143,226,193.135143,231.590000,188.815143C234.450000,186.735143,238.840000,185.745143,241.480000,188.725143Z" fill="rgb(241,243,244)" stroke="none" stroke-width="1"/><line id="eabq8heibdib21" x1="-138.742229" y1="339.706054" x2="8.958347" y2="240.488544" fill="none" stroke="rgb(0,109,128)" stroke-width="7" stroke-linecap="round" stroke-miterlimit="10"/><line id="eabq8heibdib22" x1="-565.540262" y1="164.960000" x2="-31.374164" y2="164.171245" fill="none" stroke="rgb(0,109,128)" stroke-width="7" stroke-linecap="round" stroke-miterlimit="10" stroke-dasharray="20,30"/><line id="eabq8heibdib23" x1="336.097120" y1="161.224573" x2="970.965485" y2="161.224573" fill="none" stroke="rgb(0,109,128)" stroke-width="7" stroke-linecap="round" stroke-miterlimit="10" stroke-dashoffset="409.940000" stroke-dasharray="20,30"/><line id="eabq8heibdib24" x1="150.257483" y1="473.422277" x2="150" y2="317.605143" transform="matrix(1 0 0 1 1.24514299999998 -2.49028499999997)" fill="none" stroke="rgb(0,109,128)" stroke-width="7" stroke-linecap="round" stroke-miterlimit="10"/><line id="eabq8heibdib25" x1="399.004003" y1="339.706054" x2="287.579479" y2="240.488544" transform="matrix(1 0 0 1 -0.64976200000007 2.62448450000005)" fill="none" stroke="rgb(0,109,128)" stroke-width="7" stroke-linecap="round" stroke-miterlimit="10"/><g id="eabq8heibdib26" transform="matrix(1 0 0 1 -527.46511663000001 -192.75000000000000)"><path id="eabq8heibdib27" d="M178.560000,234.440000C191.930000,239.870000,200.900000,253.570000,200.430000,268C200.360000,275.900000,197.340000,283.040000,192.620000,289.260000C196.130000,293.510000,199.810000,297.620000,203.330000,301.870000C200.190000,301.770000,196.520000,302.360000,193.500000,301.530000C191.290000,299.390000,189.490000,296.850000,187.400000,294.580000C181.680000,298.860000,175.180000,301.750000,168,302.320000C153.730000,303.780000,139.030000,296.520000,132.280000,283.720000C125.800000,272.080000,126.820000,257.350000,134.610000,246.590000C144.220000,232.890000,163.250000,227.740000,178.560000,234.440000Z" transform="matrix(1 0 0 1 83.71216399999994 33.37550484999994)" fill="rgb(140,132,7)" stroke="none" stroke-width="1"/><path id="eabq8heibdib28" d="M212.008272,232C214.185170,232,216.362068,232,218.538966,232.010000C218.626744,247,218.433632,262.010000,218.626744,277C218.951524,287.020000,226.526778,296.680000,235.725929,295.800000C244.521300,295.110000,250.446325,285.560000,250.569214,276.020000C250.700882,261.360000,250.569214,246.670000,250.630659,232C252.807557,232,254.984456,232,257.161354,232.010000C257.178909,246.340000,257.187687,260.670000,257.161354,275C257.214021,284.750000,253.079670,294.270000,245.715083,299.410000C239.105388,304.080000,230.415350,304.190000,223.735433,299.630000C216.186512,294.700000,211.946827,284.750000,211.999494,275C211.990716,260.680000,211.999494,246.330000,212.008272,232Z" transform="matrix(1 0 0 1 91.37021100000085 32.89839576500006)" fill="rgb(140,132,7)" stroke="none" stroke-width="1"/><path id="eabq8heibdib29" d="M277.010000,232C279.490000,232,281.970000,232,284.450000,232.010000C284.480000,255.340000,284.480000,278.660000,284.450000,301.990000C281.970000,302,279.490000,302,277.010000,302C276.990000,278.670000,276.990000,255.330000,277.010000,232Z" transform="matrix(1 0 0 1 104.25038763000011 33.88075179500008)" fill="rgb(140,132,7)" stroke="none" stroke-width="1"/><path id="eabq8heibdib30" d="M177.270000,241.730000C186.420000,246.240000,192.640000,255.790000,192.930000,266C193.310000,272.380000,191.230000,278.330000,187.770000,283.620000C185.620000,281.300000,183.770000,278.680000,181.480000,276.500000C178.520000,275.620000,174.840000,276.190000,171.740000,276.060000C175.320000,280.370000,179.010000,284.580000,182.590000,288.900000C172.620000,297.010000,158.320000,297.480000,147.730000,290.270000C140.150000,285.180000,135.440000,276.110000,135.480000,267C135.460000,258.350000,139.610000,249.780000,146.560000,244.580000C155.280000,237.950000,167.480000,236.760000,177.270000,241.730000Z" transform="matrix(1 0 0 1 85.16010691500077 33.86861235000018)" fill="rgb(75,74,85)" stroke="none" stroke-width="1"/></g><g id="eabq8heibdib31"><path id="eabq8heibdib32" d="M130.260000,27.720000C132.350000,36.120000,134.490000,44.500000,136.570000,52.900000L133.690000,53.740000C131.720000,46.410000,130.260000,38.900000,127.900000,31.690000C127.620000,37.930000,126.390000,44.050000,126.140000,50.290000C124.980000,50.670000,123.810000,51.040000,122.650000,51.410000C118.910000,46.270000,115.290000,41,111.770000,35.700000C113.330000,43.140000,115.430000,50.460000,117.190000,57.850000C116.210000,58.070000,115.220000,58.300000,114.240000,58.520000C112.180000,50.110000,110.080000,41.700000,107.900000,33.320000C109.540000,32.930000,111.180000,32.540000,112.810000,32.130000C116.320000,37.160000,119.810000,42.190000,123.260000,47.250000C124.070000,41.190000,124.440000,35.040000,125.520000,29.020000C127.090000,28.520000,128.670000,28.130000,130.260000,27.720000Z" transform="matrix(1 0 0 1 -31.52000000000002 -63.83240009999998)" fill="rgb(140,132,7)" stroke="none" stroke-width="1"/><path id="eabq8heibdib33" d="M181.650000,29.760000C183.220000,30.240000,184.770000,30.770000,186.330000,31.290000C186.460000,37.470000,186.440000,43.670000,186.350000,49.850000C190.430000,45.410000,194.220000,40.680000,198.350000,36.290000C200,36.290000,201.690000,37.210000,203.240000,37.710000C200.170000,45.870000,197.120000,54.030000,194.040000,62.180000C193.120000,61.790000,192.200000,61.390000,191.280000,60.990000C193.850000,53.920000,196.800000,46.960000,199.060000,39.780000C195.170000,44.640000,190.770000,49.050000,186.960000,53.960000C185.760000,53.540000,184.550000,53.110000,183.350000,52.670000C183.510000,46.440000,183.310000,40.210000,183.500000,33.980000C180.460000,40.860000,178.040000,48.050000,175.410000,55.090000C174.460000,54.730000,173.510000,54.360000,172.570000,53.990000C175.580000,45.910000,178.630000,37.840000,181.650000,29.760000Z" transform="matrix(1 0 0 1 -3.97499999999999 -70.82785143000000)" fill="rgb(140,132,7)" stroke="none" stroke-width="1"/><path id="eabq8heibdib34" d="M63.270000,63.300000C71.010000,60.070000,80.280000,67.490000,81.180000,75.260000C81.500000,82.030000,75.820000,88.120000,69.030000,88.210000C62.630000,87.680000,56.620000,82.490000,55.500000,76.110000C54.680000,70.670000,58.300000,65.310000,63.270000,63.300000Z" transform="matrix(1 0 0 1 -42.74837732500008 -71.17256989999996)" fill="rgb(140,132,7)" stroke="none" stroke-width="1"/><path id="eabq8heibdib35" d="M64.488644,66.200000C70.508644,63.620000,77.788644,69.620000,78.448644,75.630000C78.688644,80.600000,74.268644,85.060000,69.348644,85.160000C64.528644,84.710000,59.988644,80.860000,58.918644,76.120000C58.008644,72.020000,60.738644,67.770000,64.488644,66.200000Z" transform="matrix(1 0 0 1 -42.76161021500009 -70.89753988999996)" fill="rgb(75,74,85)" stroke="none" stroke-width="1"/><path id="eabq8heibdib36" d="M239.830000,65.990000C243.250000,70.100000,246.550000,74.300000,249.950000,78.420000C249.140000,79.050000,248.340000,79.670000,247.530000,80.300000C244.870000,76.880000,242.100000,73.560000,239.400000,70.170000C237.330000,71.860000,235.250000,73.550000,233.180000,75.240000C235.720000,78.350000,238.260000,81.460000,240.750000,84.600000C239.960000,85.210000,239.160000,85.810000,238.370000,86.420000C235.880000,83.300000,233.350000,80.210000,230.850000,77.110000C228.520000,79.010000,226.180000,80.900000,223.840000,82.780000C226.590000,86.140000,229.320000,89.530000,232.090000,92.890000C231.290000,93.520000,230.500000,94.150000,229.710000,94.780000C226.360000,90.620000,222.990000,86.490000,219.630000,82.330000C226.390000,76.920000,233.070000,71.400000,239.830000,65.990000Z" transform="matrix(1 0 0 1 24.96999999999957 -80.51753988500002)" fill="rgb(140,132,7)" stroke="none" stroke-width="1"/><path id="eabq8heibdib37" d="M32.080000,115.260000C32.970000,115.460000,33.850000,115.700000,34.720000,115.980000C33.510000,119.090000,31.030000,123.560000,32.210000,126.900000C32.530000,128.910000,35.220000,129.750000,36.920000,129.260000C40.230000,126.640000,40.330000,121.680000,43.540000,118.650000C46.880000,115.710000,53.110000,117.140000,54.470000,121.510000C55.780000,126.890000,53.810000,131.360000,51.800000,136.210000C50.500000,135.960000,49.200000,135.700000,47.900000,135.440000C50.530000,131.290000,52.590000,127.560000,51.700000,122.430000C51.170000,121.740000,50.650000,121.040000,50.130000,120.340000C48.650000,120.240000,47.240000,120.300000,45.780000,120.470000C43.760000,123.150000,42.730000,126.240000,41.090000,129.120000C39.660000,131.580000,36.810000,133.170000,33.970000,132.130000C31.100000,131.780000,29.180000,128.420000,28.800000,125.820000C28.870000,122.460000,30.140000,118.030000,32.080000,115.260000Z" transform="matrix(1 0 0 1 -45.93465976500001 -77.68999999500004)" fill="rgb(140,132,7)" stroke="none" stroke-width="1"/><path id="eabq8heibdib38" d="M267.230000,116.700000C269.930000,119.850000,270.510000,124.970000,270.190000,128.970000C269.210000,129.140000,268.220000,129.320000,267.240000,129.490000C267.450000,125.990000,267.250000,121.050000,264.690000,118.360000C263,116.500000,259.490000,117.560000,259.020000,119.990000C258.260000,123.410000,259.510000,127.900000,258.150000,131.310000C256.180000,135.700000,249.390000,136.170000,246.540000,132.480000C243.660000,128.650000,243.390000,123.250000,243.280000,118.640000C244.600000,118.390000,245.920000,118.140000,247.230000,117.880000C246.030000,122.840000,246.540000,127.340000,249.460000,131.570000C251.080000,131.730000,252.690000,131.800000,254.320000,131.770000C257.470000,126.940000,254.240000,122.030000,257.050000,116.970000C259.470000,113.720000,264.560000,113.630000,267.230000,116.700000Z" transform="matrix(1 0 0 1 52.13644899999991 -71.71958509999999)" fill="rgb(140,132,7)" stroke="none" stroke-width="1"/></g><g id="eabq8heibdib39"><path id="eabq8heibdib40" d="M259.020000,140.033584C267.290000,139.573584,271.970000,145.093584,275.460000,151.803584C273.810000,152.443584,272.160000,153.083584,270.510000,153.713584C267.530000,150.383584,264.140000,145.493584,259.070000,146.033584C253.660000,146.303584,249.630000,153.103584,253.500000,157.493584C258.960000,162.803584,269.550000,163.833584,274.760000,170.293584C279.530000,175.733584,278.890000,184.013584,274.310000,189.333584C268.170000,196.553584,257.010000,198.313584,249.090000,192.983584C243.940000,189.543584,242.410000,183.953584,240.570000,178.403584C242.440000,178.143584,244.320000,177.893584,246.200000,177.653584C248.480000,182.493584,250.110000,187.453584,255.630000,189.413584C262.800000,191.953584,271.100000,187.843584,271.970000,179.963584C272.580000,174.033584,267.600000,171.253584,263.040000,169.013584C257.640000,166.253584,249.480000,164.163584,246.920000,158.103584C243.430000,149.663584,249.990000,140.213584,259.020000,140.033584Z" transform="matrix(1 0 0 1 403.58561850000012 -49.20547010999958)" fill="rgb(140,132,7)" stroke="none" stroke-width="1"/><path id="eabq8heibdib41" d="M70.240000,138.380000C76.220000,142.470000,81.550000,148.210000,87,153C96.320000,161.310000,105.170000,170.210000,114.860000,178.090000C115.160000,164.750000,114.870000,151.400000,115.070000,138.060000C117.020000,138.060000,118.970000,138.060000,120.920000,138.060000C121.030000,156.050000,121.120000,174.050000,120.870000,192.030000C105.450000,179.260000,91.490000,164.780000,76.120000,151.960000C75.850000,165.280000,76.120000,178.610000,75.930000,191.940000C73.980000,191.940000,72.030000,191.940000,70.080000,191.940000C70.130000,174.110000,69.600000,156.180000,70.240000,138.380000Z" transform="matrix(1 0 0 1 376.35663099999999 -51.12914561499994)" fill="rgb(140,132,7)" stroke="none" stroke-width="1"/><path id="eabq8heibdib42" d="M147.710012,144.165805C160.157430,141.980744,172.492962,149.383580,176.735341,161.326068C180.586116,171.761618,176.632778,183.449810,168.054782,190.146269C160.754161,195.995074,150.451241,197.191206,141.882568,193.621646C132.428124,189.647095,125.584375,179.691882,125.873416,169.246914C126.050570,156.984201,135.728788,145.974131,147.710012,144.165805Z" transform="matrix(1 0 0 1 387.13882946000280 -50.05450011999974)" fill="rgb(140,132,7)" stroke="none" stroke-width="1"/><path id="eabq8heibdib43" d="M193.839839,136.823390C195.410669,135.903050,197.175303,135.265892,198.868536,134.557938C199.551949,146.067242,198.725733,157.596774,199.133741,169.095964C199.276544,175.123684,202.132599,181.009813,207.712106,183.791060C214.056629,186.997078,222.441190,184.650718,226.011259,178.521861C228.673511,174.011185,228.744912,169.075737,228.816313,163.998698C228.785713,154.572800,228.591909,145.157016,228.785713,135.731119C230.764551,135.731119,232.753589,135.731119,234.742628,135.731119C234.854830,144.479403,234.814029,153.217574,234.946632,161.965859C234.936431,167.589034,235.079234,173.930276,232.743389,179.159020C229.418125,186.410488,221.512972,191.619004,213.403816,191.325709C203.978834,191.133551,195.247466,183.780946,193.635835,174.537094C192.320009,166.820399,193.176826,158.668818,192.881020,150.840873C192.983022,146.340310,192.340410,141.111567,193.839839,136.823390Z" transform="matrix(1 0 0 1 391.04413235999994 -43.02750212499974)" fill="rgb(140,132,7)" stroke="none" stroke-width="1"/><path id="eabq8heibdib44" d="M153.770540,149.887305C163.020547,147.881351,173.587921,152.737394,177.227268,161.242276C179.814616,166.633845,179.511337,172.796934,176.611233,178.016046C174.004929,183.117160,168.858666,186.484621,163.257483,187.964126C156.395798,189.670548,148.993898,187.719054,143.705472,183.280541C137.298705,177.643900,135.431644,168.077043,139.374270,160.615983C142.018483,154.979342,147.610188,151.294196,153.770540,149.887305Z" transform="matrix(1 0 0 1 381.02398273999790 -49.08670276499967)" fill="rgb(75,74,85)" stroke="none" stroke-width="1"/></g></svg>