<svg id="eh3o66hi48m51" xmlns="http://www.w3.org/2000/svg" xmlns:xlink="http://www.w3.org/1999/xlink" viewBox="0 0 500 209" shape-rendering="geometricPrecision" text-rendering="geometricPrecision"><path id="eh3o66hi48m52" d="M-0.449220,0.449220L183.570780,0.449220C183.700780,25.109220,183.590780,49.789220,183.630780,74.449220C183.740780,84.479220,183.010780,93.799220,185.310780,103.689220C188.620780,118.639220,197.650780,132.079220,210.580780,140.359220C233.850780,155.299220,267.100780,153.029220,288.080780,134.969220C300.480780,124.439220,308.050780,108.679220,308.740780,92.449220C309.410780,76.829220,304.837342,53.149220,296.037342,39.959220C288.258122,29.777658,279.620780,29.279220,267.290780,24.649220C260.220780,21.959220,252.890780,20.349220,245.440780,19.179220C245.430780,45.789220,245.430780,72.389220,245.440780,98.999220C250.340780,94.249220,255.230780,89.489220,260.250780,84.859220C260.370780,69.879220,260.170780,54.939220,259.820780,39.959220C267.700780,42.829220,274.430780,51.310000,279.820780,57.800000C293.924996,68.842562,297.868715,78.515502,292.020780,91.449220C291.490780,101.649220,287.100780,111.549220,279.820780,118.719220C268.060780,130.349220,250.300780,133.659220,234.470780,130.519220C220.270780,127.599220,208.140780,117.429220,203.270780,103.709220C201.480780,98.819220,200.650780,93.649220,200.620780,88.459220C200.630780,64.539220,200.640780,42.356658,200.620780,19.179220C194.960780,13.789220,189.420780,5.809220,183.740780,0.449220L499.550780,0.449220L499.550780,194.119220C498.070780,192.599220,497.010780,190.529220,494.810780,190.099220C491.960780,189.189220,487.320780,189.909220,485.990780,192.949220C485.010780,194.599220,486.070780,196.639220,486.420780,198.379220C489.580780,199.769220,493.020780,200.509220,496.100780,202.029220C498.010780,204.529220,495.840780,206.609220,493.300780,206.989220C489.720780,207.389220,488.110780,205.529220,486.880780,202.429220C486.130780,202.579220,485.380780,202.729220,484.630780,202.889220C485.660780,205.179220,486.030780,207.459220,488.640780,208.489220C492.210780,210.279220,498.370780,209.049220,499.540780,204.749220L499.550780,200.939220L499.550780,209.449220L-0.449220,209.449220L-0.449220,208.539220C2.880780,208.519220,6.280780,208.759220,9.590780,208.359220C13.800780,206.669220,14.250780,201.599220,10.860780,198.729220C11.470780,197.339220,12.240780,195.869220,12.480780,194.379220C12.040780,192.359220,10.740780,190.599220,8.600780,190.239220C5.650780,189.749220,2.540780,189.979220,-0.449220,189.959220L-0.449220,0.449220Z" fill="none" stroke="none" stroke-width="1"/><path id="eh3o66hi48m53" d="M125.930588,147.397252L188.317647,0.202623C196.733123,7.907318,198.113211,24.425055,203.773211,29.815055C216.451671,59.645227,220.795986,61.885611,228.952254,74.651843C235.337939,80.383156,239.791298,78.369664,243.768337,91.651843C243.991603,96.742193,243.176258,97.665022,235.363993,105.151843C228.528379,112.717305,218.867035,130.348295,233.883213,135.171843C261.817698,125.663599,245.803993,165.116403,246.333993,154.916403C272.563317,132.990005,253.872044,132.217243,240.976717,126.078066C231.992963,120.935724,233.549907,111.615597,246.333993,105.151843C261.508228,95.424784,257.988302,85.609755,243.768337,74.651843C237.525136,68.543457,229.954106,59.164194,228.952254,58.451842C230.739131,36.783254,263.174645,21.344646,263.820588,18.730001C269.156861,17.058345,275.081550,-1.588938,282.151550,1.101062C304.259188,10.293960,300.878430,135.223292,327.301862,44.740764C341.316603,79.441568,373.770588,131.777252,373.100588,147.397252C370.386821,142.361969,380.536550,160.941476,368.412431,166.093818C360.909009,176.434543,274.907065,174.143183,243.453213,172.063522C230.133505,171.577667,212.056043,171.425232,211.473993,172.063522C208.004871,170.357375,187.629015,173.460450,186.203993,172.063522C151.030829,168.019612,102.570654,184.787050,125.930588,147.397252Z" transform="matrix(1 0 0 1 0.14941236499999 0.44921900000000)" fill="rgb(29,29,27)" stroke="none" stroke-width="1"/><path id="eh3o66hi48m54" d="M35.510000,189.590000C40.490000,188.310000,45.620000,191.290000,46.560000,196.450000C48.100000,202.850000,43.850000,209.060000,36.990000,208.740000C29.820000,208.690000,27.410000,200.150000,29.610000,194.510000C30.740000,192.130000,32.920000,190.220000,35.510000,189.590000Z" fill="rgb(29,29,27)" stroke="none" stroke-width="1"/><path id="eh3o66hi48m55" d="M231.510000,189.590000C236.490000,188.310000,241.620000,191.290000,242.560000,196.450000C244.100000,202.850000,239.850000,209.060000,232.990000,208.740000C225.820000,208.690000,223.410000,200.150000,225.610000,194.510000C226.740000,192.130000,228.920000,190.220000,231.510000,189.590000Z" fill="rgb(29,29,27)" stroke="none" stroke-width="1"/><path id="eh3o66hi48m56" d="M495.260000,189.650000C497.460000,190.080000,498.520000,192.150000,500,193.670000L500,194.760000C499.190000,194.850000,498.380000,194.940000,497.580000,195.030000C496.420000,193.470000,495.840000,191.910000,493.760000,191.460000C491.370000,190.680000,486.880000,192.980000,489.110000,195.810000C492.720000,197.750000,496.760000,197.630000,499.990000,200.540000L500,200.110000L500,200.490000L499.990000,204.300000C498.820000,208.600000,492.660000,209.830000,489.090000,208.040000C486.480000,207.010000,486.110000,204.730000,485.080000,202.440000C485.830000,202.280000,486.580000,202.130000,487.330000,201.980000C488.560000,205.080000,490.170000,206.940000,493.750000,206.540000C496.290000,206.160000,498.460000,204.080000,496.550000,201.580000C493.470000,200.060000,490.030000,199.320000,486.870000,197.930000C486.520000,196.190000,485.460000,194.150000,486.440000,192.500000C487.770000,189.460000,492.410000,188.740000,495.260000,189.650000Z" fill="rgb(29,29,27)" stroke="none" stroke-width="1"/><path id="eh3o66hi48m57" d="M0,189.510000C2.990000,189.530000,6.100000,189.300000,9.050000,189.790000C11.190000,190.150000,12.490000,191.910000,12.930000,193.930000C12.690000,195.420000,11.920000,196.890000,11.310000,198.280000C14.700000,201.150000,14.250000,206.220000,10.040000,207.910000C6.730000,208.310000,3.330000,208.070000,0,208.090000L0,189.510000Z" fill="rgb(29,29,27)" stroke="none" stroke-width="1"/><path id="eh3o66hi48m58" d="M62.440000,189.530000C65.950000,189.560000,69.580000,189.250000,73.050000,189.780000C75.450000,190.030000,76.860000,192.750000,76.890000,194.930000C76.680000,196.310000,75.820000,197.630000,75.200000,198.860000C76.160000,201.900000,76.630000,205.020000,77.180000,208.150000C76.150000,208.110000,75.130000,208.080000,74.100000,208.040000C73.780000,205.940000,74.530000,201.900000,72.510000,200.590000C70.210000,199.780000,67.420000,200.150000,65.010000,200C65,202.700000,65,205.400000,65,208.100000C64.140000,208.090000,63.280000,208.090000,62.420000,208.090000C62.450000,201.900000,62.420000,195.720000,62.440000,189.530000Z" fill="rgb(29,29,27)" stroke="none" stroke-width="1"/><path id="eh3o66hi48m59" d="M99.610000,189.540000L102,189.470000C102,195.680000,102,201.900000,102,208.110000L99.600000,208.090000C99.620000,201.910000,99.600000,195.720000,99.610000,189.540000Z" fill="rgb(29,29,27)" stroke="none" stroke-width="1"/><path id="eh3o66hi48m510" d="M139.470000,194.980000C138.630000,194.990000,137.790000,195,136.950000,195.010000C135.480000,192.460000,133.710000,190.580000,130.540000,191.580000C128.430000,192.210000,128.310000,193.820000,127.650000,195.600000C130.930000,197,134.590000,197.570000,137.770000,199.190000C140.320000,200.790000,140.230000,204.190000,138.390000,206.310000C135.770000,209.240000,130.690000,209.660000,127.520000,207.420000C125.680000,206.150000,125.340000,204.070000,124.560000,202.100000C125.320000,202.130000,126.070000,202.150000,126.830000,202.170000C127.590000,203.400000,128.270000,204.870000,129.340000,205.840000C131.780000,207.120000,135.800000,206.890000,136.860000,203.930000C136.680000,203.020000,136.450000,202.120000,136.160000,201.230000C133.010000,200.140000,128.260000,199.640000,126.080000,196.940000C125.390000,194.920000,125.270000,192.550000,127.060000,191.060000C131.400000,187.620000,138.280000,189.080000,139.470000,194.980000Z" fill="rgb(29,29,27)" stroke="none" stroke-width="1"/><path id="eh3o66hi48m511" d="M195.450000,189.510000C198.550000,189.550000,201.880000,189.260000,204.920000,189.940000C208.310000,191.030000,210.270000,194.500000,210.140000,197.970000C210.350000,201.700000,209.100000,206.740000,205.040000,207.910000C201.870000,208.290000,198.610000,208.080000,195.420000,208.090000C195.450000,201.890000,195.420000,195.700000,195.450000,189.510000Z" fill="rgb(29,29,27)" stroke="none" stroke-width="1"/><path id="eh3o66hi48m512" d="M256.770000,189.130000L259.850000,189.800000C262.050000,192.370000,263.530000,195.590000,265.350000,198.440000C266.990000,195.490000,268.690000,192.580000,270.320000,189.630000C271.420000,189.570000,272.510000,189.520000,273.600000,189.470000C271.630000,192.850000,269.390000,196.080000,267.480000,199.500000C266.020000,201.870000,266.700000,205.390000,266.540000,208.090000C265.690000,208.090000,264.850000,208.090000,264,208.100000C264,205.610000,264,203.130000,263.970000,200.640000C261.470000,196.880000,259,193.070000,256.770000,189.130000Z" fill="rgb(29,29,27)" stroke="none" stroke-width="1"/><path id="eh3o66hi48m513" d="M290.770000,189.510000C295.010000,189.520000,299.240000,189.520000,303.470000,189.520000L303.640000,191.600000C300.090000,191.660000,296.550000,191.650000,293,191.640000C293,193.620000,293,195.600000,293,197.580000C296.330000,197.550000,299.670000,197.550000,303,197.530000L303,199.860000C299.670000,199.820000,296.330000,199.820000,293,199.810000C293,201.870000,293,203.940000,293,206C296.670000,206,300.330000,206,304,206L304,208.090000C299.590000,208.100000,295.180000,208.100000,290.770000,208.100000C290.780000,201.900000,290.780000,195.700000,290.770000,189.510000Z" fill="rgb(29,29,27)" stroke="none" stroke-width="1"/><path id="eh3o66hi48m514" d="M361.260000,189.540000C365.690000,189.520000,370.170000,189.420000,374.570000,189.680000L373.250000,191.450000C370.180000,191.890000,366.960000,191.600000,363.860000,191.640000C363.860000,193.610000,363.870000,195.580000,363.880000,197.560000C366.780000,197.550000,369.680000,197.550000,372.580000,197.570000L372.490000,199.830000C369.610000,199.820000,366.740000,199.820000,363.860000,199.830000C363.860000,202.580000,363.860000,205.340000,363.880000,208.100000C363,208.090000,362.130000,208.090000,361.250000,208.080000C361.280000,201.900000,361.260000,195.720000,361.260000,189.540000Z" fill="rgb(29,29,27)" stroke="none" stroke-width="1"/><path id="eh3o66hi48m515" d="M397,189.570000L399.550000,189.500000C399.580000,195.700000,399.550000,201.890000,399.580000,208.090000C398.720000,208.090000,397.860000,208.090000,397,208.100000C397,201.920000,397,195.750000,397,189.570000Z" fill="rgb(29,29,27)" stroke="none" stroke-width="1"/><path id="eh3o66hi48m516" d="M424.440000,189.550000L427.100000,189.480000C427.090000,194.990000,427.120000,200.490000,427.060000,206C430.040000,206,433.020000,206,436,206L436,208.100000C432.140000,208.100000,428.280000,208.100000,424.420000,208.090000C424.450000,201.910000,424.430000,195.730000,424.440000,189.550000Z" fill="rgb(29,29,27)" stroke="none" stroke-width="1"/><path id="eh3o66hi48m517" d="M452.610000,189.530000C453.830000,189.520000,455.040000,189.510000,456.260000,189.490000C458,194.710000,459.710000,199.930000,461.510000,205.130000C463.050000,199.850000,464.800000,194.720000,466.550000,189.500000C467.730000,189.500000,468.920000,189.510000,470.100000,189.510000C470.100000,195.710000,470.100000,201.910000,470.100000,208.100000L467.600000,208.090000C467.600000,203.290000,467.580000,198.500000,467.740000,193.700000C465.910000,198.440000,464.270000,203.250000,462.690000,208.070000C461.840000,208.080000,460.990000,208.080000,460.130000,208.080000C458.520000,203.280000,456.980000,198.390000,455.120000,193.680000C455.220000,198.490000,455.250000,203.290000,455.230000,208.100000L452.600000,208.090000C452.620000,201.900000,452.600000,195.720000,452.610000,189.530000Z" fill="rgb(29,29,27)" stroke="none" stroke-width="1"/><path id="eh3o66hi48m518" d="M493.760000,191.460000C495.840000,191.910000,496.420000,193.470000,497.580000,195.030000C498.380000,194.940000,499.190000,194.850000,500,194.760000L500,200.110000L499.990000,200.540000C496.760000,197.630000,492.720000,197.750000,489.110000,195.810000C486.880000,192.980000,491.370000,190.680000,493.760000,191.460000Z" fill="rgb(255,255,255)" stroke="none" stroke-width="1"/><path id="eh3o66hi48m519" d="M2.110000,191.540000C4.270000,191.660000,6.570000,191.600000,8.670000,192.130000C10.460000,192.980000,10.640000,196,8.900000,196.950000C6.670000,197.330000,4.340000,197.220000,2.090000,197.270000C2.090000,195.360000,2.100000,193.450000,2.110000,191.540000Z" fill="rgb(231,190,124)" stroke="none" stroke-width="1"/><path id="eh3o66hi48m520" d="M35.121842,192.190000C37.241842,191.480000,40.831842,192.151842,42.501842,193.841842C45.331842,196.141842,45.151842,200.741842,43.731842,203.741842C42.081842,206.921842,38.301842,207.841842,35.121842,206.431842C30.941842,203.361842,30.011842,194.470000,35.121842,192.190000Z" fill="rgb(231,190,124)" stroke="none" stroke-width="1"/><path id="eh3o66hi48m521" d="M65,192C67.370000,192,69.750000,192,72.120000,192C72.860000,192.500000,73.600000,193,74.340000,193.500000C73.990000,195.220000,73.550000,196.530000,72.590000,198.010000C70.060000,197.990000,67.530000,197.990000,65,197.990000C65,195.990000,65,194,65,192Z" fill="rgb(231,190,124)" stroke="none" stroke-width="1"/><path id="eh3o66hi48m522" d="M198,192.010000C200.160000,192,202.320000,192.010000,204.480000,191.990000C206.050000,193.810000,207.360000,195.410000,207.410000,197.950000C207.590000,200.370000,207.100000,204.420000,204.510000,205.510000C202.400000,205.900000,200.160000,205.780000,198.010000,205.850000C197.990000,201.240000,198,196.630000,198,192.010000Z" fill="rgb(231,190,124)" stroke="none" stroke-width="1"/><path id="eh3o66hi48m523" d="M230.681700,192.190000C232.801700,191.480000,235.601700,191.500000,237.271700,193.190000C240.101700,195.490000,239.921700,200.090000,238.501700,203.090000C236.851700,206.270000,233.071700,207.190000,229.891700,205.780000C225.711700,202.710000,225.571700,194.470000,230.681700,192.190000Z" fill="rgb(231,190,124)" stroke="none" stroke-width="1"/><path id="eh3o66hi48m524" d="M2.080000,199.790000C4.560000,199.830000,7.140000,199.670000,9.580000,200.100000C11.490000,201.370000,11.680000,204.300000,9.530000,205.430000C7.180000,206.030000,4.530000,205.720000,2.110000,205.800000C2.100000,203.800000,2.090000,201.790000,2.080000,199.790000Z" fill="rgb(231,190,124)" stroke="none" stroke-width="1"/><script><![CDATA[!function(t,n){"object"==typeof exports&&"undefined"!=typeof module?module.exports=n():"function"==typeof define&&define.amd?define(n):(t=t||self).__SVGATOR_PLAYER__=n()}(this,(function(){"use strict";function t(n){return(t="function"==typeof Symbol&&"symbol"==typeof Symbol.iterator?function(t){return typeof t}:function(t){return t&&"function"==typeof Symbol&&t.constructor===Symbol&&t!==Symbol.prototype?"symbol":typeof t})(n)}function n(t,n){if(!(t instanceof n))throw new TypeError("Cannot call a class as a function")}function r(t,n){for(var r=0;r<n.length;r++){var e=n[r];e.enumerable=e.enumerable||!1,e.configurable=!0,"value"in e&&(e.writable=!0),Object.defineProperty(t,e.key,e)}}function e(t,n,e){return n&&r(t.prototype,n),e&&r(t,e),t}var i=1e-5,u=Math.abs;function o(t){return t}function a(t,n,r){var e=1-r;return 3*r*e*(t*e+n*r)+r*r*r}function l(){var t=arguments.length>0&&void 0!==arguments[0]?arguments[0]:0,n=arguments.length>1&&void 0!==arguments[1]?arguments[1]:0,r=arguments.length>2&&void 0!==arguments[2]?arguments[2]:1,e=arguments.length>3&&void 0!==arguments[3]?arguments[3]:1;return t<0||t>1||r<0||r>1?null:u(t-n)<=i&&u(r-e)<=i?o:function(o){if(o<=0)return t>0?o*n/t:0===n&&r>0?o*e/r:0;if(o>=1)return r<1?1+(o-1)*(e-1)/(r-1):1===r&&t<1?1+(o-1)*(n-1)/(t-1):1;for(var l,f=0,s=1;f<s;){var c=a(t,r,l=(f+s)/2);if(u(o-c)<i)break;c<o?f=l:s=l}return a(n,e,l)}}function f(){return 1}function s(t){return 1===t?1:0}function c(){var t=arguments.length>0&&void 0!==arguments[0]?arguments[0]:1,n=arguments.length>1&&void 0!==arguments[1]?arguments[1]:0;if(1===t){if(0===n)return s;if(1===n)return f}var r=1/t;return function(t){return t>=1?1:(t+=n*r)-t%r}}function v(t){var n=arguments.length>1&&void 0!==arguments[1]?arguments[1]:2;if(Number.isInteger(t))return t;var r=Math.pow(10,n);return Math.round(t*r)/r}var h=Math.PI/180;function y(t,n,r){return t>=.5?r:n}function d(t,n,r){return 0===t||n===r?n:t*(r-n)+n}function g(t,n,r){var e=d(t,n,r);return e<=0?0:e}function m(t,n,r){return 0===t?n:1===t?r:{x:d(t,n.x,r.x),y:d(t,n.y,r.y)}}function p(t,n,r){return 0===t?n:1===t?r:{x:g(t,n.x,r.x),y:g(t,n.y,r.y)}}function b(t,n,r){var e=function(t,n,r){return Math.round(d(t,n,r))}(t,n,r);return e<=0?0:e>=255?255:e}function w(t,n,r){return 0===t?n:1===t?r:{r:b(t,n.r,r.r),g:b(t,n.g,r.g),b:b(t,n.b,r.b),a:d(t,null==n.a?1:n.a,null==r.a?1:r.a)}}function A(t,n,r){if(0===t)return n;if(1===t)return r;var e=n.length;if(e!==r.length)return y(t,n,r);for(var i=[],u=0;u<e;u++)i.push(w(t,n[u],r[u]));return i}function x(t,n,r){var e=n.length;if(e!==r.length)return y(t,n,r);for(var i=new Array(e),u=0;u<e;u++)i[u]=d(t,n[u],r[u]);return i}function k(t,n){for(var r=[],e=0;e<t;e++)r.push(n);return r}function S(t,n){if(--n<=0)return t;var r=(t=Object.assign([],t)).length;do{for(var e=0;e<r;e++)t.push(t[e])}while(--n>0);return t}var _=6,M=/\.0+$/g;function I(t){return Number.isInteger(t)?t+"":t.toFixed(_).replace(M,"")}function E(t){var n=arguments.length>1&&void 0!==arguments[1]?arguments[1]:" ";return t&&t.length?t.map(I).join(n):""}function F(t){return I(t.x)+","+I(t.y)}function B(t){return t?null==t.a||t.a>=1?"rgb("+t.r+","+t.g+","+t.b+")":"rgba("+t.r+","+t.g+","+t.b+","+t.a+")":"transparent"}var j={f:null,i:p,u:function(t,n){return function(r){var e=n(r);t.setAttribute("rx",I(e.x)),t.setAttribute("ry",I(e.y))}}},q={f:null,i:function(t,n,r){return 0===t?n:1===t?r:{width:g(t,n.width,r.width),height:g(t,n.height,r.height)}},u:function(t,n){return function(r){var e=n(r);t.setAttribute("width",I(e.width)),t.setAttribute("height",I(e.height))}}},P=Math.sin,O=Math.cos,z=Math.acos,L=Math.asin,C=Math.tan,R=Math.atan2,T=Math.PI/180,V=180/Math.PI,D=Math.sqrt,N=function(){function t(){var r=arguments.length>0&&void 0!==arguments[0]?arguments[0]:1,e=arguments.length>1&&void 0!==arguments[1]?arguments[1]:0,i=arguments.length>2&&void 0!==arguments[2]?arguments[2]:0,u=arguments.length>3&&void 0!==arguments[3]?arguments[3]:1,o=arguments.length>4&&void 0!==arguments[4]?arguments[4]:0,a=arguments.length>5&&void 0!==arguments[5]?arguments[5]:0;n(this,t),this.m=[r,e,i,u,o,a],this.i=null,this.w=null,this.s=null}return e(t,[{key:"point",value:function(t,n){var r=this.m;return{x:r[0]*t+r[2]*n+r[4],y:r[1]*t+r[3]*n+r[5]}}},{key:"translateSelf",value:function(){var t=arguments.length>0&&void 0!==arguments[0]?arguments[0]:0,n=arguments.length>1&&void 0!==arguments[1]?arguments[1]:0;if(!t&&!n)return this;var r=this.m;return r[4]+=r[0]*t+r[2]*n,r[5]+=r[1]*t+r[3]*n,this.w=this.s=this.i=null,this}},{key:"rotateSelf",value:function(){var t=arguments.length>0&&void 0!==arguments[0]?arguments[0]:0;if(t%=360){var n=P(t*=T),r=O(t),e=this.m,i=e[0],u=e[1];e[0]=i*r+e[2]*n,e[1]=u*r+e[3]*n,e[2]=e[2]*r-i*n,e[3]=e[3]*r-u*n,this.w=this.s=this.i=null}return this}},{key:"scaleSelf",value:function(){var t=arguments.length>0&&void 0!==arguments[0]?arguments[0]:1,n=arguments.length>1&&void 0!==arguments[1]?arguments[1]:1;if(1!==t||1!==n){var r=this.m;r[0]*=t,r[1]*=t,r[2]*=n,r[3]*=n,this.w=this.s=this.i=null}return this}},{key:"skewSelf",value:function(t,n){if(n%=360,(t%=360)||n){var r=this.m,e=r[0],i=r[1],u=r[2],o=r[3];t&&(t=C(t*T),r[2]+=e*t,r[3]+=i*t),n&&(n=C(n*T),r[0]+=u*n,r[1]+=o*n),this.w=this.s=this.i=null}return this}},{key:"resetSelf",value:function(){var t=arguments.length>0&&void 0!==arguments[0]?arguments[0]:1,n=arguments.length>1&&void 0!==arguments[1]?arguments[1]:0,r=arguments.length>2&&void 0!==arguments[2]?arguments[2]:0,e=arguments.length>3&&void 0!==arguments[3]?arguments[3]:1,i=arguments.length>4&&void 0!==arguments[4]?arguments[4]:0,u=arguments.length>5&&void 0!==arguments[5]?arguments[5]:0,o=this.m;return o[0]=t,o[1]=n,o[2]=r,o[3]=e,o[4]=i,o[5]=u,this.w=this.s=this.i=null,this}},{key:"recomposeSelf",value:function(){var t=arguments.length>0&&void 0!==arguments[0]?arguments[0]:null,n=arguments.length>1&&void 0!==arguments[1]?arguments[1]:null,r=arguments.length>2&&void 0!==arguments[2]?arguments[2]:null,e=arguments.length>3&&void 0!==arguments[3]?arguments[3]:null,i=arguments.length>4&&void 0!==arguments[4]?arguments[4]:null;return this.isIdentity||this.resetSelf(),t&&(t.x||t.y)&&this.translateSelf(t.x,t.y),n&&this.rotateSelf(n),r&&(r.x&&this.skewSelf(r.x,0),r.y&&this.skewSelf(0,r.y)),!e||1===e.x&&1===e.y||this.scaleSelf(e.x,e.y),i&&(i.x||i.y)&&this.translateSelf(i.x,i.y),this}},{key:"decompose",value:function(){var t=arguments.length>0&&void 0!==arguments[0]?arguments[0]:0,n=arguments.length>1&&void 0!==arguments[1]?arguments[1]:0,r=this.m,e=r[0]*r[0]+r[1]*r[1],i=[[r[0],r[1]],[r[2],r[3]]],u=D(e);if(0===u)return{origin:{x:r[4],y:r[5]},translate:{x:t,y:n},scale:{x:0,y:0},skew:{x:0,y:0},rotate:0};i[0][0]/=u,i[0][1]/=u;var o=r[0]*r[3]-r[1]*r[2]<0;o&&(u=-u);var a=i[0][0]*i[1][0]+i[0][1]*i[1][1];i[1][0]-=i[0][0]*a,i[1][1]-=i[0][1]*a;var l=D(i[1][0]*i[1][0]+i[1][1]*i[1][1]);if(0===l)return{origin:{x:r[4],y:r[5]},translate:{x:t,y:n},scale:{x:u,y:0},skew:{x:0,y:0},rotate:0};i[1][0]/=l,i[1][1]/=l,a/=l;var f=0;return i[1][1]<0?(f=z(i[1][1])*V,i[0][1]<0&&(f=360-f)):f=L(i[0][1])*V,o&&(f=-f),a=R(a,D(i[0][0]*i[0][0]+i[0][1]*i[0][1]))*V,{origin:{x:r[4],y:r[5]},translate:{x:t,y:n},scale:{x:u,y:l},skew:{x:a,y:0},rotate:f}}},{key:"toString",value:function(){return null===this.s&&(this.s="matrix("+this.m.map($).join(" ")+")"),this.s}},{key:"determinant",get:function(){var t=this.m;return t[0]*t[3]-t[1]*t[2]}},{key:"isIdentity",get:function(){if(null===this.i){var t=this.m;this.i=1===t[0]&&0===t[1]&&0===t[2]&&1===t[3]&&0===t[4]&&0===t[5]}return this.i}}]),t}(),G=/\.0+$/;function $(t){return Number.isInteger(t)?t:t.toFixed(14).replace(G,"")}Object.freeze({M:2,L:2,Z:0,H:1,V:1,C:6,Q:4,T:2,S:4,A:7});function H(t,n,r){return t+(n-t)*r}function Q(t,n,r){var e=arguments.length>3&&void 0!==arguments[3]&&arguments[3],i={x:H(t.x,n.x,r),y:H(t.y,n.y,r)};return e&&(i.a=function(t,n){return Math.atan2(n.y-t.y,n.x-t.x)}(t,n)),i}function U(t,n,r,e){var i=1-e;return i*i*t+2*i*e*n+e*e*r}function Y(t,n,r,e){return 2*(1-e)*(n-t)+2*e*(r-n)}function Z(t,n,r,e){var i=arguments.length>4&&void 0!==arguments[4]&&arguments[4],u={x:U(t.x,n.x,r.x,e),y:U(t.y,n.y,r.y,e)};return i&&(u.a=function(t,n,r,e){return Math.atan2(Y(t.y,n.y,r.y,e),Y(t.x,n.x,r.x,e))}(t,n,r,e)),u}function J(t,n,r,e,i){var u=i*i;return i*u*(e-t+3*(n-r))+3*u*(t+r-2*n)+3*i*(n-t)+t}function K(t,n,r,e,i){var u=1-i;return 3*(u*u*(n-t)+2*u*i*(r-n)+i*i*(e-r))}function W(t,n,r,e,i){var u=arguments.length>5&&void 0!==arguments[5]&&arguments[5],o={x:J(t.x,n.x,r.x,e.x,i),y:J(t.y,n.y,r.y,e.y,i)};return u&&(o.a=function(t,n,r,e,i){return Math.atan2(K(t.y,n.y,r.y,e.y,i),K(t.x,n.x,r.x,e.x,i))}(t,n,r,e,i)),o}function X(t,n,r){var e,i=arguments.length>3&&void 0!==arguments[3]&&arguments[3];if(nt(n)){if(null!=(e=r).start&&!nt(e))return Z(n,r.start,r,t,i)}else if(nt(r)){if(n.end)return Z(n,n.end,r,t,i)}else{if(n.end)return r.start?W(n,n.end,r.start,r,t,i):Z(n,n.end,r,t,i);if(r.start)return Z(n,r.start,r,t,i)}return Q(n,r,t,i)}function tt(t,n,r){var e=X(t,n,r,!0);return e.a=function(t){return arguments.length>1&&void 0!==arguments[1]&&arguments[1]?t+Math.PI:t}(e.a)/h,e}function nt(t){return!t.type||"corner"===t.type}var rt=new N;var et={f:function(t){return t?t.join(" "):""},i:function(n,r,e){if(0===n)return r;if(1===n)return e;var i=r.length;if(i!==e.length)return y(n,r,e);for(var u,o=new Array(i),a=0;a<i;a++){if((u=t(r[a]))!==t(e[a]))return y(n,r,e);if("number"===u)o[a]=d(n,r[a],e[a]);else{if(r[a]!==e[a])return y(n,r,e);o[a]=r[a]}}return o}},it={f:null,i:x,u:function(t,n){return function(r){var e=n(r);t.setAttribute("x1",I(e[0])),t.setAttribute("y1",I(e[1])),t.setAttribute("x2",I(e[2])),t.setAttribute("y2",I(e[3]))}}},ut={f:I,i:d},ot={f:I,i:function(t,n,r){var e=d(t,n,r);return e<=0?0:e>=1?1:e}},at={f:E,i:function(t,n,r){var e,i,u,o=n.length,a=r.length;if(o!==a)if(0===o)n=k(o=a,0);else if(0===a)a=o,r=k(o,0);else{var l=(u=(e=o)*(i=a)/function(t,n){for(var r;n;)r=n,n=t%n,t=r;return t||1}(e,i))<0?-u:u;n=S(n,Math.floor(l/o)),r=S(r,Math.floor(l/a)),o=a=l}for(var f=[],s=0;s<o;s++)f.push(v(g(t,n[s],r[s]),6));return f}};function lt(t,n,r,e,i,u,o,a){return n=function(t,n,r){for(var e,i,u,o=t.length-1,a={},l=0;l<=o;l++)(e=t[l]).e&&(e.e=n(e.e)),e.v&&"g"===(i=e.v).t&&i.r&&(u=r.getElementById(i.r))&&(a[i.r]=u.querySelectorAll("stop"));return a}(t,e,a),function(e){var i,u=r(e,t,ft);return u?"c"===u.t?B(u.v):"g"===u.t?(n[u.r]&&function(t,n){for(var r=0,e=t.length;r<e;r++)t[r].setAttribute("stop-color",B(n[r]))}(n[u.r],u.v),(i=u.r)?"url(#"+i+")":"none"):"none":"none"}}function ft(t,n,r){if(0===t)return n;if(1===t)return r;if(n&&r){var e=n.t;if(e===r.t)switch(n.t){case"c":return{t:e,v:w(t,n.v,r.v)};case"g":if(n.r===r.r)return{t:e,v:A(t,n.v,r.v),r:n.r}}}return y(t,n,r)}var st={blur:p,brightness:g,contrast:g,"drop-shadow":function(t,n,r){return 0===t?n:1===t?r:{blur:p(t,n.blur,r.blur),offset:m(t,n.offset,r.offset),color:w(t,n.color,r.color)}},grayscale:g,"hue-rotate":d,invert:g,opacity:g,saturate:g,sepia:g};function ct(t,n,r){if(0===t)return n;if(1===t)return r;var e=n.length;if(e!==r.length)return y(t,n,r);for(var i,u=[],o=0;o<e;o++){if(n[o].type!==r[o].type)return n;if(!(i=st[n[o].type]))return y(t,n,r);u.push({type:n.type,value:i(t,n[o].value,r[o].value)})}return u}var vt={blur:function(t){return t?function(n){t.setAttribute("stdDeviation",F(n))}:null},brightness:function(t,n,r){return(t=yt(r,n))?function(n){n=I(n),t.map((function(t){return t.setAttribute("slope",n)}))}:null},contrast:function(t,n,r){return(t=yt(r,n))?function(n){var r=I((1-n)/2);n=I(n),t.map((function(t){t.setAttribute("slope",n),t.setAttribute("intercept",r)}))}:null},"drop-shadow":function(t,n,r){var e=r.getElementById(n+"-blur");if(!e)return null;var i=r.getElementById(n+"-offset");if(!i)return null;var u=r.getElementById(n+"-flood");return u?function(t){e.setAttribute("stdDeviation",F(t.blur)),i.setAttribute("dx",I(t.offset.x)),i.setAttribute("dy",I(t.offset.y)),u.setAttribute("flood-color",B(t.color))}:null},grayscale:function(t){return t?function(n){t.setAttribute("values",E(function(t){return[.2126+.7874*(t=1-t),.7152-.7152*t,.0722-.0722*t,0,0,.2126-.2126*t,.7152+.2848*t,.0722-.0722*t,0,0,.2126-.2126*t,.7152-.7152*t,.0722+.9278*t,0,0,0,0,0,1,0]}(n)))}:null},"hue-rotate":function(t){return t?function(n){return t.setAttribute("values",I(n))}:null},invert:function(t,n,r){return(t=yt(r,n))?function(n){n=I(n)+" "+I(1-n),t.map((function(t){return t.setAttribute("tableValues",n)}))}:null},opacity:function(t,n,r){return(t=r.getElementById(n+"-A"))?function(n){return t.setAttribute("tableValues","0 "+I(n))}:null},saturate:function(t){return t?function(n){return t.setAttribute("values",I(n))}:null},sepia:function(t){return t?function(n){return t.setAttribute("values",E(function(t){return[.393+.607*(t=1-t),.769-.769*t,.189-.189*t,0,0,.349-.349*t,.686+.314*t,.168-.168*t,0,0,.272-.272*t,.534-.534*t,.131+.869*t,0,0,0,0,0,1,0]}(n)))}:null}};var ht=["R","G","B"];function yt(t,n){var r=ht.map((function(r){return t.getElementById(n+"-"+r)||null}));return-1!==r.indexOf(null)?null:r}var dt={fill:lt,"fill-opacity":ot,stroke:lt,"stroke-opacity":ot,"stroke-width":ut,"stroke-dashoffset":{f:I,i:d},"stroke-dasharray":at,opacity:ot,transform:function(n,r,e,i){if(!(n=function(n,r){if(!n||"object"!==t(n))return null;var e=!1;for(var i in n)n.hasOwnProperty(i)&&(n[i]&&n[i].length?(n[i].forEach((function(t){t.e&&(t.e=r(t.e))})),e=!0):delete n[i]);return e?n:null}(n,i)))return null;var u=function(t,i,u){var o=arguments.length>3&&void 0!==arguments[3]?arguments[3]:null;return n[t]?e(i,n[t],u):r&&r[t]?r[t]:o};return r&&r.a&&n.o?function(t){var r=e(t,n.o,tt);return rt.recomposeSelf(r,u("r",t,d,0)+r.a,u("k",t,m),u("s",t,m),u("t",t,m)).toString()}:function(t){return rt.recomposeSelf(u("o",t,X,null),u("r",t,d,0),u("k",t,m),u("s",t,m),u("t",t,m)).toString()}},"#filter":function(t,n,r,e,i,u,o,a){if(!n.items||!t||!t.length)return null;var l=function(t,n){var r=(t=t.map((function(t){return t&&vt[t[0]]?(n.getElementById(t[1]),vt[t[0]](n.getElementById(t[1]),t[1],n)):null}))).length;return function(n){for(var e=0;e<r;e++)t[e]&&t[e](n[e].value)}}(n.items,a);return l?(t=function(t,n){return t.map((function(t){return t.e=n(t.e),t}))}(t,e),function(n){l(r(n,t,ct))}):null},"#line":it,points:{f:E,i:x},d:et,r:ut,"#size":q,"#radius":j,_:function(t,n){if(Array.isArray(t))for(var r=0;r<t.length;r++)this[t[r]]=n;else this[t]=n}},gt=function(){function t(r){n(this,t),this.list=r,this.length=r.length}return e(t,[{key:"setAttribute",value:function(t,n){for(var r=this.list,e=0;e<this.length;e++)r[e].setAttribute(t,n)}},{key:"removeAttribute",value:function(t){for(var n=this.list,r=0;r<this.length;r++)n[r].removeAttribute(t)}},{key:"style",value:function(t,n){for(var r=this.list,e=0;e<this.length;e++)r[e].style[t]=n}}]),t}(),mt=/-./g,pt=function(t,n){return n.toUpperCase()};function bt(t){return"function"==typeof t?t:y}function wt(t){return t?"function"==typeof t?t:Array.isArray(t)?function(t){var n=arguments.length>1&&void 0!==arguments[1]?arguments[1]:o;if(!Array.isArray(t))return n;switch(t.length){case 1:return c(t[0])||n;case 2:return c(t[0],t[1])||n;case 4:return l(t[0],t[1],t[2],t[3])||n}return n}(t,null):function(t,n){var r=arguments.length>2&&void 0!==arguments[2]?arguments[2]:o;switch(t){case"linear":return o;case"steps":return c(n.steps||1,n.jump||0)||r;case"bezier":case"cubic-bezier":return l(n.x1||0,n.y1||0,n.x2||0,n.y2||0)||r}return r}(t.type,t.value,null):null}function At(t,n,r){var e=arguments.length>3&&void 0!==arguments[3]&&arguments[3],i=n.length-1;if(t<=n[0].t)return e?[0,0,n[0].v]:n[0].v;if(t>=n[i].t)return e?[i,1,n[i].v]:n[i].v;var u,o=n[0],a=null;for(u=1;u<=i;u++){if(!(t>n[u].t)){a=n[u];break}o=n[u]}return null==a?e?[i,1,n[i].v]:n[i].v:o.t===a.t?e?[u,1,a.v]:a.v:(t=(t-o.t)/(a.t-o.t),o.e&&(t=o.e(t)),e?[u,t,r(t,o.v,a.v)]:r(t,o.v,a.v))}function xt(t,n){var r=arguments.length>2&&void 0!==arguments[2]?arguments[2]:null;return t&&t.length?"function"!=typeof n?null:("function"!=typeof r&&(r=null),function(e){var i=At(e,t,n);return null!=i&&r&&(i=r(i)),i}):null}function kt(t,n){return t.t-n.t}function St(n,r,e,i,u){var o,a="@"===e[0],l="#"===e[0],f=dt[e],s=y;switch(a?(o=e.substr(1),e=o.replace(mt,pt)):l&&(e=e.substr(1)),t(f)){case"function":if(s=f(i,u,At,wt,e,a,r,n),l)return s;break;case"string":s=xt(i,bt(f));break;case"object":if((s=xt(i,bt(f.i),f.f))&&"function"==typeof f.u)return f.u(r,s,e,a,n)}return s?function(t,n,r){if(arguments.length>3&&void 0!==arguments[3]&&arguments[3])return t instanceof gt?function(e){return t.style(n,r(e))}:function(e){return t.style[n]=r(e)};if(Array.isArray(n)){var e=n.length;return function(i){var u=r(i);if(null==u)for(var o=0;o<e;o++)t[o].removeAttribute(n);else for(var a=0;a<e;a++)t[a].setAttribute(n,u)}}return function(e){var i=r(e);null==i?t.removeAttribute(n):t.setAttribute(n,i)}}(r,e,s,a):null}function _t(n,r,e,i){if(!i||"object"!==t(i))return null;var u=null,o=null;return Array.isArray(i)?o=function(t){if(!t||!t.length)return null;for(var n=0;n<t.length;n++)t[n].e&&(t[n].e=wt(t[n].e));return t.sort(kt)}(i):(o=i.keys,u=i.data||null),o?St(n,r,e,o,u):null}function Mt(t,n,r){if(!r)return null;var e=[];for(var i in r)if(r.hasOwnProperty(i)){var u=_t(t,n,i,r[i]);u&&e.push(u)}return e.length?e:null}function It(t,n){if(!n.duration||n.duration<0)return null;var r=function(t,n){if(!n)return null;var r=[];if(Array.isArray(n))for(var e=n.length,i=0;i<e;i++){var u=n[i];if(2===u.length){var o=null;if("string"==typeof u[0])o=t.getElementById(u[0]);else if(Array.isArray(u[0])){o=[];for(var a=0;a<u[0].length;a++)if("string"==typeof u[0][a]){var l=t.getElementById(u[0][a]);l&&o.push(l)}o=o.length?1===o.length?o[0]:new gt(o):null}if(o){var f=Mt(t,o,u[1]);f&&(r=r.concat(f))}}}else for(var s in n)if(n.hasOwnProperty(s)){var c=t.getElementById(s);if(c){var v=Mt(t,c,n[s]);v&&(r=r.concat(v))}}return r.length?r:null}(t,n.elements);return r?function(t,n){var r=arguments.length>2&&void 0!==arguments[2]?arguments[2]:1/0,e=arguments.length>3&&void 0!==arguments[3]?arguments[3]:1,i=arguments.length>4&&void 0!==arguments[4]&&arguments[4],u=arguments.length>5&&void 0!==arguments[5]?arguments[5]:1,o=t.length,a=e>0?n:0;i&&r%2==0&&(a=n-a);var l=null;return function(f,s){var c=f%n,v=1+(f-c)/n;s*=e,i&&v%2==0&&(s=-s);var h=!1;if(v>r)c=a,h=!0,-1===u&&(c=e>0?0:n);else if(s<0&&(c=n-c),c===l)return!1;l=c;for(var y=0;y<o;y++)t[y](c);return h}}(r,n.duration,n.iterations||1/0,n.direction||1,!!n.alternate,n.fill||1):null}var Et=function(){function t(r){var e=arguments.length>1&&void 0!==arguments[1]?arguments[1]:{};n(this,t),this._id=0,this._running=!1,this._animations=r,this.direction=e.direction||1,this.speed=e.speed||1,this.fps=e.fps||100,this.offset=e.offset||0}return e(t,[{key:"_start",value:function(){var t=this,n=arguments.length>0&&void 0!==arguments[0]?arguments[0]:0,r=-1/0,e=null,i={},u=function u(o){t._running=!0,null==e&&(e=o);var a=Math.round((o-e+n)*t.speed),l=t.fps?1e3/t.fps:0;if(a>r+l){t.offset=a,r=a;for(var f=t._animations,s=f.length,c=0,v=0;v<s;v++)i[v]?c++:(i[v]=f[v](a,t.direction),i[v]&&c++);if(c===s)return void t._stop()}t._id=window.requestAnimationFrame(u)};this._id=window.requestAnimationFrame(u)}},{key:"_stop",value:function(){this._id&&window.cancelAnimationFrame(this._id),this._running=!1}},{key:"play",value:function(){this._running||this._start(this.offset)}},{key:"stop",value:function(){this._stop(),this.offset=0;var t=this.direction,n=this._animations;requestAnimationFrame((function(){for(var r=0;r<n.length;r++)n[r](0,t)}))}},{key:"restart",value:function(){this._stop(),this.offset=0,this._start()}},{key:"pause",value:function(){this._stop()}},{key:"reverse",value:function(){this.direction=-this.direction}}],[{key:"build",value:function(n){if(!(n=function(t){if(!t||!t.root||!Array.isArray(t.animations))return null;var n=window.document.getElementById(t.root);if(!n)return null;var r=t.animations.map((function(t){return It(n,t)})).filter((function(t){return!!t}));return r.length?{element:n,animations:r,options:t.options||void 0}:null}(n)))return null;var r=n.element,e=n.options||{},i=new t(n.animations,n.options);return function(t,n,r){var e=arguments.length>3&&void 0!==arguments[3]?arguments[3]:null;if("click"===r){return void n.addEventListener("click",(function r(){n.removeEventListener("click",r),t.play()}))}if("hover"===r)return n.addEventListener("mouseenter",(function(){return t.play()})),void n.addEventListener("mouseleave","freeze"===e?function(){return t.pause()}:function(){return t.stop()});t.play()}(i,r,e.start,e.hover),i}}]),t}();return function(){for(var t=0,n=["ms","moz","webkit","o"],r=0;r<n.length&&!window.requestAnimationFrame;++r)window.requestAnimationFrame=window[n[r]+"RequestAnimationFrame"],window.cancelAnimationFrame=window[n[r]+"CancelAnimationFrame"]||window[n[r]+"CancelRequestAnimationFrame"];window.requestAnimationFrame||(window.requestAnimationFrame=function(n){var r=Date.now(),e=Math.max(0,16-(r-t)),i=window.setTimeout((function(){n(r+e)}),e);return t=r+e,i},window.cancelAnimationFrame=window.clearTimeout)}(),Et}));
__SVGATOR_PLAYER__.build({"root":"eh3o66hi48m51","animations":[{"duration":3000,"direction":1,"iterations":1,"fill":1,"alternate":false,"elements":{"eh3o66hi48m53":{"d":[{"t":0,"v":["M",125.93058763500001,147.39725199999998,"L",188.317647,0.20262300000000266,"C",196.733123,7.907318000000004,198.11321063500006,24.425054999999997,203.77321063500005,29.815055,"C",216.45167063500006,59.645227000000006,220.79598639000005,61.88561100000002,228.95225439,74.651843,"C",235.33793923084792,80.38315603812501,239.79129802179787,78.36966434888888,243.76833651500002,91.651843,"C",243.991602515,96.74219299999999,243.176257635,97.66502200000001,235.36399263500002,105.151843,"C",228.52837863500002,112.71730500000002,218.86703463500007,130.34829499999984,233.88321263500004,135.17184299999985,"C",261.8176976350001,125.66359899999983,245.80399263500001,165.11640300000005,246.333992635,154.916403,"C",272.56331663500015,132.990005,253.872043515,132.21724300000005,240.97671651500002,126.078066,"C",231.99296251500002,120.935724,233.54990663499996,111.615597,246.333992635,105.151843,"C",261.50822763499997,95.42478400000002,257.98830151500005,85.60975499999999,243.76833651500002,74.651843,"C",237.52513551500004,68.54345700000002,229.95410639,59.164194,228.95225439,58.451842,"C",230.73913139,36.783254,263.1746446350001,21.344645999999997,263.82058763500004,18.730000999999994,"C",269.15686063500016,17.05834499999999,275.08155000000016,-1.5889379999999953,282.1515500000001,1.1010620000000024,"C",304.2591880000001,10.29396,300.878429635,135.2232919999999,327.301861635,44.740764,"C",341.3166026349999,79.44156799999999,373.77058763499997,131.77725199999998,373.100587635,147.39725199999998,"C",370.38682128784683,142.36196933623296,380.53654968757166,160.9414756587062,368.412430635,166.093818,"C",360.909008635,176.43454300000002,274.90706463500015,174.14318299999996,243.45321263500003,172.06352199999998,"C",230.13350463500004,171.57766700000002,212.056042635,171.42523199999994,211.47399263500003,172.06352199999998,"C",208.00487063500006,170.357375,187.629014635,173.46044999999998,186.20399263500002,172.06352199999998,"C",151.030828635,168.019612,102.57065363500008,184.78704999999997,125.93058763500001,147.39725199999998,"Z"]},{"t":2000,"v":["M",184.02,0,"L",184.19,0,"C",189.87,5.36,195.41,10.87,201.07,16.26,"C",201.09,40.17,201.08,64.09,201.07,88.01,"C",201.1,93.2,201.93,98.37,203.72,103.26,"C",208.59,116.98,220.72,127.15,234.92,130.07,"C",250.75,133.21,268.51,129.9,280.27,118.27,"C",287.55,111.1,291.94,101.2,292.47,91,"C",293.19,77.7,289.3,63.67,280.69,53.36,"C",275.3,46.87,268.15,42.38,260.27,39.51,"C",260.62,54.49,260.82,69.43,260.7,84.41,"C",255.68,89.04,250.79,93.8,245.89,98.55,"C",245.88,71.94,245.88,45.34,245.89,18.73,"C",253.34,19.9,260.67,21.51,267.74,24.2,"C",280.07,28.83,291.09,36.48,298.42,47.56,"C",307.22,60.75,309.86,76.38,309.19,92,"C",308.5,108.23,300.93,123.99,288.53,134.52,"C",267.55,152.58,234.3,154.85,211.03,139.91,"C",198.1,131.63,189.07,118.19,185.76,103.24,"C",183.46,93.35,184.19,84.03,184.08,74,"C",184.04,49.34,184.15,24.66,184.02,0,"Z"]}]}}}],"options":{"start":"load","hover":"freeze"}})]]></script></svg>