<svg id="eeqqy1rbqvw91" xmlns="http://www.w3.org/2000/svg" xmlns:xlink="http://www.w3.org/1999/xlink" viewBox="0 0 1277 1280" shape-rendering="geometricPrecision" text-rendering="geometricPrecision"><g id="eeqqy1rbqvw92" transform="matrix(0.10000000000000 0 0 -0.10000000000000 0 1280)"><path id="eeqqy1rbqvw93" d="M6098.867240,12746.265520C5205.867240,12698.265520,4384.867240,12485.265520,3588.867240,12092.265520C2939.867240,11773.265520,2414.867240,11395.265520,1893.867240,10873.265520C910.867240,9889.265520,284.867240,8636.265520,89.867240,7262.265520C40.867240,6921.265520,29.867240,6754.265520,29.867240,6352.265520C29.867240,5950.265520,40.867240,5784.265520,89.867240,5442.265520C255.867240,4267.265520,741.867240,3173.265520,1504.867240,2256.265520C2542.867240,1008.265520,4020.867240,197.265520,5613.867240,3.265520C5930.867240,-34.734480,6055.867240,-42.734480,6408.867240,-42.734480C6888.867240,-42.734480,7243.867240,-7.734480,7683.867240,81.265520C8990.867240,346.265520,10207.867240,1035.265520,11104.867240,2017.265520C11989.867240,2987.265520,12543.867240,4155.265520,12727.867240,5442.265520C12776.867240,5781.265520,12787.867240,5949.265520,12787.867240,6352.265520C12787.867240,6826.265520,12760.867240,7129.265520,12678.867240,7560.265520C12449.867240,8778.265520,11857.867240,9914.265520,10982.867240,10816.265520C10312.867240,11507.265520,9492.867240,12038.265520,8575.867240,12373.265520C8081.867240,12554.265520,7532.867240,12676.265520,6978.867240,12727.265520C6816.867240,12742.265520,6254.867240,12754.265520,6098.867240,12746.265520ZM6959.867240,12267.265520C7980.867240,12165.265520,8874.867240,11849.265520,9709.867240,11296.265520C11018.867240,10429.265520,11938.867240,9060.265520,12247.867240,7520.265520C12331.867240,7103.265520,12357.867240,6823.265520,12357.867240,6352.265520C12357.867240,5962.265520,12346.867240,5801.265520,12298.867240,5475.265520C11922.867240,2944.265520,9935.867240,920.265520,7413.867240,498.265520C5998.867240,261.265520,4576.867240,525.265520,3358.867240,1250.265520C1915.867240,2109.265520,898.867240,3543.265520,569.867240,5184.265520C485.867240,5601.265520,459.867240,5881.265520,459.867240,6352.265520C459.867240,6823.265520,486.867240,7109.265520,569.867240,7522.265520C859.867240,8956.265520,1663.867240,10226.265520,2838.867240,11106.265520C3413.867240,11537.265520,4063.867240,11860.265520,4760.867240,12061.265520C5194.867240,12186.265520,5583.867240,12251.265520,6113.867240,12286.265520C6239.867240,12294.265520,6817.867240,12282.265520,6959.867240,12267.265520Z" fill="rgb(0,0,0)" stroke="none" stroke-width="1"/><path id="eeqqy1rbqvw94" d="M6115,12070C4530,11997,3046,11258,2025,10035C1928,9919,1730,9654,1730,9641C1730,9630,3403,6724,3419,6708C3422,6704,3621,7039,3860,7453C4098,7867,4795,9073,5408,10134C6254,11599,6519,12065,6508,12071C6493,12081,6348,12080,6115,12070Z" fill="rgb(0,0,0)" stroke="none" stroke-width="1"/><path id="eeqqy1rbqvw95" d="M6151.734480,10675.398280C5735.734480,9953.398280,5352.734480,9291.398280,5301.734480,9203.398280L5208.734480,9043.398280L8309.734480,9040.398280C10015.734480,9039.398280,11412.734480,9040.398280,11414.734480,9042.398280C11421.734480,9049.398280,11269.734480,9305.398280,11155.734480,9475.398280C10402.734480,10604.398280,9273.734480,11426.398280,7970.734480,11792.398280C7681.734480,11873.398280,7350.734480,11938.398280,7077.734480,11967.398280C7019.734480,11974.398280,6958.734480,11980.398280,6940.734480,11983.398280L6908.734480,11987.398280L6151.734480,10675.398280Z" fill="rgb(0,0,0)" stroke="none" stroke-width="1"/><path id="eeqqy1rbqvw96" d="M1533,9348C1494,9298,1318,8969,1237,8794C796,7842,629,6803,746,5755C811,5179,977,4573,1213,4058L1249,3980L2944,3980C3877,3980,4640,3984,4640,3988C4640,3992,4535,4178,4407,4400C3848,5369,1623,9222,1585,9288C1554,9341,1540,9357,1533,9348Z" fill="rgb(0,0,0)" stroke="none" stroke-width="1"/><path id="eeqqy1rbqvw97" d="M8130,8812C8130,8807,8815,7618,9651,6169C10488,4720,11185,3513,11200,3487L11228,3438L11278,3522C11456,3817,11653,4250,11769,4597C12059,5465,12134,6402,11989,7310C11914,7780,11752,8319,11561,8733L11521,8820L9825,8820C8893,8820,8130,8816,8130,8812Z" fill="rgb(0,0,0)" stroke="none" stroke-width="1"/><path id="eeqqy1rbqvw98" d="M9069,5622C7014,2065,6250,738,6256,728C6264,715,6629,725,6870,745C7580,806,8241,989,8885,1305C9604,1658,10231,2150,10744,2765C10863,2908,11040,3144,11040,3159C11040,3169,9367,6075,9351,6092C9347,6096,9220,5885,9069,5622Z" fill="rgb(0,0,0)" stroke="none" stroke-width="1"/><path id="eeqqy1rbqvw99" d="M1400,3685C1400,3674,1553,3420,1638,3290C2213,2411,3044,1692,3988,1255C4439,1046,4880,906,5375,815C5509,790,5779,753,5863,749L5911,746L6755,2209C7220,3014,7600,3676,7600,3681C7600,3686,6295,3690,4500,3690C2795,3690,1400,3688,1400,3685Z" fill="rgb(0,0,0)" stroke="none" stroke-width="1"/></g><g id="eeqqy1rbqvw910" transform="matrix(1 0 0 1 388.49999999999983 520.30579900000009)"><path id="eeqqy1rbqvw911" d="M141.404065,-127.969881L141.747396,-127.969881C153.218705,-116.982829,164.407271,-105.688303,175.838188,-94.639756C175.878580,-45.628484,175.858384,3.403286,175.838188,52.435056C175.898776,63.073638,177.575041,73.671224,181.190119,83.694859C191.025555,111.818433,215.523262,132.665135,244.201535,138.650618C276.171750,145.087063,312.039787,138.302148,335.790244,114.462705C350.492907,99.765473,359.358937,79.472223,360.429323,58.564027C361.883433,31.301379,354.027202,2.542360,336.638474,-18.591317C325.752848,-31.894669,311.312732,-41.098375,295.398310,-46.981368C296.105169,-16.275017,296.509089,14.349341,296.266737,45.055692C286.128362,54.546374,276.252534,64.303532,266.356510,74.040192C266.336315,19.494398,266.336315,-35.030899,266.356510,-89.576693C281.402506,-87.178400,296.206149,-83.878185,310.484698,-78.364160C335.386324,-68.873479,357.642280,-53.192332,372.445923,-30.480291C390.218374,-3.443124,395.550109,28.595612,394.196979,60.613850C392.803457,93.882480,377.515111,126.187693,352.472112,147.772331C310.100974,184.792138,242.949385,189.445236,195.953371,158.820878C169.839986,141.848342,151.603028,114.298719,144.918163,83.653863C140.273091,63.381112,141.747396,44.276760,141.525241,23.717033C141.444457,-26.831606,141.666613,-77.421242,141.404065,-127.969881Z" transform="matrix(1 0 0 1 -17.90042924000090 94.09914499499996)" fill="rgb(173,163,10)" stroke="none" stroke-width="1"/></g></svg>